Perun-Italic.ufo
<glyph name="exclam" format="2">
  <advance width="220"/>
  <unicode hex="0021"/>
  <outline>
    <contour>
      <point x="300" y="722" type="line"/>
      <point x="217" y="722" type="line"/>
      <point x="89" y="169" type="line"/>
      <point x="172" y="169" type="line"/>
    </contour>
    <contour>
      <point x="150" y="0" type="line"/>
      <point x="172" y="95" type="line"/>
      <point x="72" y="95" type="line"/>
      <point x="50" y="0" type="line"/>
    </contour>
  </outline>
</glyph>
<glyph name="quotedbl" format="2">
  <advance width="451"/>
  <unicode hex="0022"/>
  <outline>
    <contour>
      <point x="549" y="722" type="line"/>
      <point x="443" y="722" type="line"/>
      <point x="399" y="434" type="line"/>
      <point x="459" y="434" type="line"/>
    </contour>
    <contour>
      <point x="343" y="722" type="line"/>
      <point x="237" y="722" type="line"/>
      <point x="193" y="434" type="line"/>
      <point x="253" y="434" type="line"/>
    </contour>
  </outline>
</glyph>
<glyph name="percent" format="2">
  <advance width="927"/>
  <unicode hex="0025"/>
  <outline>
    <contour>
      <point x="203" y="-14" type="line"/>
      <point x="302" y="-14" type="line"/>
      <point x="901" y="736" type="line"/>
      <point x="802" y="736" type="line"/>
    </contour>
    <contour>
      <point x="166" y="483" type="curve" smooth="yes"/>
      <point x="166" y="389"/>
      <point x="223" y="343"/>
      <point x="308" y="343" type="curve" smooth="yes"/>
      <point x="443" y="343"/>
      <point x="537" y="462"/>
      <point x="537" y="584" type="curve" smooth="yes"/>
      <point x="537" y="672"/>
      <point x="487" y="726"/>
      <point x="395" y="726" type="curve" smooth="yes"/>
      <point x="259" y="726"/>
      <point x="166" y="604"/>
    </contour>
    <contour>
      <point x="318" y="407" type="curve" smooth="yes"/>
      <point x="269" y="407"/>
      <point x="250" y="434"/>
      <point x="250" y="484" type="curve" smooth="yes"/>
      <point x="250" y="555"/>
      <point x="288" y="657"/>
      <point x="383" y="657" type="curve" smooth="yes"/>
      <point x="431" y="657"/>
      <point x="450" y="630"/>
      <point x="450" y="580" type="curve" smooth="yes"/>
      <point x="450" y="508"/>
      <point x="413" y="407"/>
    </contour>
    <contour>
      <point x="559" y="137" type="curve" smooth="yes"/>
      <point x="559" y="43"/>
      <point x="616" y="-3"/>
      <point x="701" y="-3" type="curve" smooth="yes"/>
      <point x="836" y="-3"/>
      <point x="930" y="116"/>
      <point x="930" y="238" type="curve" smooth="yes"/>
      <point x="930" y="326"/>
      <point x="880" y="380"/>
      <point x="788" y="380" type="curve" smooth="yes"/>
      <point x="652" y="380"/>
      <point x="559" y="258"/>
    </contour>
    <contour>
      <point x="711" y="61" type="curve" smooth="yes"/>
      <point x="662" y="61"/>
      <point x="643" y="88"/>
      <point x="643" y="138" type="curve" smooth="yes"/>
      <point x="643" y="209"/>
      <point x="681" y="311"/>
      <point x="776" y="311" type="curve" smooth="yes"/>
      <point x="824" y="311"/>
      <point x="843" y="284"/>
      <point x="843" y="234" type="curve" smooth="yes"/>
      <point x="843" y="162"/>
      <point x="806" y="61"/>
    </contour>
  </outline>
  <guideline angle="0" x="0" y="543"/>
</glyph>
<glyph name="ampersand" format="2">
  <advance width="765"/>
  <unicode hex="0026"/>
  <outline>
    <contour>
      <point x="102" y="160" type="curve" smooth="yes"/>
      <point x="102" y="56"/>
      <point x="183" y="-13"/>
      <point x="306" y="-13" type="curve" smooth="yes"/>
      <point x="401" y="-13"/>
      <point x="494" y="29"/>
      <point x="555" y="73" type="curve"/>
      <point x="575" y="43"/>
      <point x="596" y="19"/>
      <point x="617" y="0" type="curve"/>
      <point x="751" y="0" type="line"/>
      <point x="717" y="40"/>
      <point x="658" y="102"/>
      <point x="631" y="148" type="curve"/>
      <point x="691" y="229"/>
      <point x="728" y="325"/>
      <point x="748" y="423" type="curve"/>
      <point x="642" y="423" type="line"/>
      <point x="633" y="326"/>
      <point x="629" y="299"/>
      <point x="582" y="211" type="curve"/>
      <point x="532" y="274"/>
      <point x="479" y="343"/>
      <point x="441" y="412" type="curve"/>
      <point x="526" y="454"/>
      <point x="643" y="514"/>
      <point x="643" y="618" type="curve" smooth="yes"/>
      <point x="643" y="699"/>
      <point x="573" y="736"/>
      <point x="496" y="736" type="curve" smooth="yes"/>
      <point x="382" y="736"/>
      <point x="270" y="654"/>
      <point x="270" y="541" type="curve" smooth="yes"/>
      <point x="270" y="492"/>
      <point x="290" y="461"/>
      <point x="315" y="422" type="curve"/>
      <point x="197" y="371"/>
      <point x="102" y="298"/>
    </contour>
    <contour>
      <point x="404" y="465" type="curve"/>
      <point x="382" y="502"/>
      <point x="371" y="533"/>
      <point x="371" y="562" type="curve" smooth="yes"/>
      <point x="371" y="626"/>
      <point x="423" y="661"/>
      <point x="477" y="661" type="curve" smooth="yes"/>
      <point x="521" y="661"/>
      <point x="557" y="638"/>
      <point x="557" y="599" type="curve" smooth="yes"/>
      <point x="557" y="533"/>
      <point x="457" y="486"/>
    </contour>
    <contour>
      <point x="203" y="189" type="curve" smooth="yes"/>
      <point x="203" y="258"/>
      <point x="284" y="350"/>
      <point x="350" y="365" type="curve"/>
      <point x="406" y="272"/>
      <point x="461" y="195"/>
      <point x="517" y="134" type="curve"/>
      <point x="464" y="94"/>
      <point x="400" y="74"/>
      <point x="326" y="74" type="curve" smooth="yes"/>
      <point x="260" y="74"/>
      <point x="203" y="131"/>
    </contour>
  </outline>
</glyph>
<glyph name="quotesingle" format="2">
  <advance width="226"/>
  <unicode hex="0027"/>
  <anchor x="183" y="722" name="_dcaron"/>
  <outline>
    <contour>
      <point x="323" y="722" type="line"/>
      <point x="217" y="722" type="line"/>
      <point x="173" y="434" type="line"/>
      <point x="233" y="434" type="line"/>
    </contour>
  </outline>
</glyph>
<glyph name="parenleft" format="2">
  <advance width="359"/>
  <unicode hex="0028"/>
  <outline>
    <contour>
      <point x="238" y="-132" type="line"/>
      <point x="231" y="-73"/>
      <point x="227" y="-15"/>
      <point x="227" y="41" type="curve" smooth="yes"/>
      <point x="227" y="298"/>
      <point x="308" y="515"/>
      <point x="438" y="736" type="curve"/>
      <point x="374" y="736" type="line"/>
      <point x="233" y="555"/>
      <point x="137" y="335"/>
      <point x="137" y="103" type="curve" smooth="yes"/>
      <point x="137" y="21"/>
      <point x="149" y="-56"/>
      <point x="173" y="-132" type="curve"/>
    </contour>
  </outline>
</glyph>
<glyph name="asterisk" format="2">
  <advance width="656"/>
  <unicode hex="002A"/>
  <outline>
    <contour>
      <point x="642" y="488" type="line"/>
      <point x="661" y="570" type="line"/>
      <point x="491" y="549" type="line"/>
      <point x="623" y="683" type="line"/>
      <point x="560" y="722" type="line"/>
      <point x="462" y="576" type="line"/>
      <point x="432" y="722" type="line"/>
      <point x="350" y="683" type="line"/>
      <point x="420" y="549" type="line"/>
      <point x="260" y="570" type="line"/>
      <point x="241" y="488" type="line"/>
      <point x="411" y="509" type="line"/>
      <point x="279" y="375" type="line"/>
      <point x="342" y="335" type="line"/>
      <point x="440" y="482" type="line"/>
      <point x="470" y="335" type="line"/>
      <point x="552" y="375" type="line"/>
      <point x="482" y="509" type="line"/>
    </contour>
  </outline>
</glyph>
<glyph name="plus" format="2">
  <advance width="700"/>
  <unicode hex="002B"/>
  <outline>
    <contour>
      <point x="712" y="269" type="line"/>
      <point x="726" y="331" type="line"/>
      <point x="457" y="331" type="line"/>
      <point x="520" y="600" type="line"/>
      <point x="458" y="600" type="line"/>
      <point x="395" y="331" type="line"/>
      <point x="126" y="331" type="line"/>
      <point x="112" y="269" type="line"/>
      <point x="381" y="269" type="line"/>
      <point x="319" y="0" type="line"/>
      <point x="381" y="0" type="line"/>
      <point x="443" y="269" type="line"/>
    </contour>
  </outline>
</glyph>
<glyph name="hyphen" format="2">
  <advance width="319"/>
  <unicode hex="002D"/>
  <outline>
    <contour>
      <point x="327" y="203" type="line"/>
      <point x="346" y="285" type="line"/>
      <point x="106" y="285" type="line"/>
      <point x="87" y="203" type="line"/>
    </contour>
  </outline>
</glyph>
<glyph name="period" format="2">
  <advance width="275"/>
  <unicode hex="002E"/>
  <outline>
    <contour>
      <point x="206" y="0" type="line"/>
      <point x="234" y="123" type="line"/>
      <point x="126" y="123" type="line"/>
      <point x="98" y="0" type="line"/>
    </contour>
  </outline>
</glyph>
<glyph name="one" format="2">
  <advance width="424"/>
  <unicode hex="0031"/>
  <outline>
    <contour>
      <point x="327" y="0" type="line"/>
      <point x="494" y="722" type="line"/>
      <point x="394" y="722" type="line"/>
      <point x="370" y="696"/>
      <point x="276" y="633"/>
      <point x="217" y="602" type="curve"/>
      <point x="198" y="519" type="line"/>
      <point x="272" y="548"/>
      <point x="330" y="576"/>
      <point x="373" y="602" type="curve"/>
      <point x="234" y="0" type="line"/>
    </contour>
  </outline>
</glyph>
<glyph name="two" format="2">
  <advance width="558"/>
  <unicode hex="0032"/>
  <outline>
    <contour>
      <point x="59" y="0" type="line"/>
      <point x="494" y="0" type="line"/>
      <point x="512" y="78" type="line"/>
      <point x="187" y="78" type="line"/>
      <point x="388" y="236" type="line" smooth="yes"/>
      <point x="553" y="366"/>
      <point x="625" y="453"/>
      <point x="625" y="579" type="curve" smooth="yes"/>
      <point x="625" y="665"/>
      <point x="567" y="736"/>
      <point x="443" y="736" type="curve" smooth="yes"/>
      <point x="320" y="736"/>
      <point x="231" y="666"/>
      <point x="188" y="526" type="curve"/>
      <point x="290" y="526" type="line"/>
      <point x="317" y="604"/>
      <point x="357" y="653"/>
      <point x="440" y="653" type="curve" smooth="yes"/>
      <point x="500" y="653"/>
      <point x="524" y="628"/>
      <point x="524" y="580" type="curve" smooth="yes"/>
      <point x="524" y="466"/>
      <point x="457" y="401"/>
      <point x="338" y="304" type="curve" smooth="yes"/>
      <point x="80" y="93" type="line"/>
    </contour>
  </outline>
</glyph>
<glyph name="three" format="2">
  <advance width="558"/>
  <unicode hex="0033"/>
  <outline>
    <contour>
      <point x="90" y="192" type="line"/>
      <point x="86" y="174"/>
      <point x="84" y="158"/>
      <point x="84" y="142" type="curve" smooth="yes"/>
      <point x="84" y="46"/>
      <point x="158" y="-12"/>
      <point x="269" y="-12" type="curve" smooth="yes"/>
      <point x="418" y="-12"/>
      <point x="564" y="91"/>
      <point x="564" y="236" type="curve" smooth="yes"/>
      <point x="564" y="320"/>
      <point x="514" y="356"/>
      <point x="460" y="379" type="curve"/>
      <point x="549" y="421"/>
      <point x="632" y="481"/>
      <point x="632" y="583" type="curve" smooth="yes"/>
      <point x="632" y="681"/>
      <point x="557" y="736"/>
      <point x="449" y="736" type="curve" smooth="yes"/>
      <point x="319" y="736"/>
      <point x="229" y="655"/>
      <point x="184" y="534" type="curve"/>
      <point x="286" y="534" type="line"/>
      <point x="320" y="617"/>
      <point x="372" y="659"/>
      <point x="440" y="659" type="curve" smooth="yes"/>
      <point x="492" y="659"/>
      <point x="531" y="634"/>
      <point x="531" y="584" type="curve" smooth="yes"/>
      <point x="531" y="461"/>
      <point x="424" y="416"/>
      <point x="317" y="416" type="curve" smooth="yes"/>
      <point x="308" y="416" type="line"/>
      <point x="290" y="336" type="line"/>
      <point x="298" y="336" type="line" smooth="yes"/>
      <point x="409" y="336"/>
      <point x="463" y="300"/>
      <point x="463" y="228" type="curve" smooth="yes"/>
      <point x="463" y="140"/>
      <point x="383" y="65"/>
      <point x="289" y="65" type="curve" smooth="yes"/>
      <point x="230" y="65"/>
      <point x="191" y="94"/>
      <point x="191" y="152" type="curve" smooth="yes"/>
      <point x="191" y="164"/>
      <point x="193" y="178"/>
      <point x="196" y="192" type="curve"/>
    </contour>
  </outline>
</glyph>
<glyph name="semicolon" format="2">
  <advance width="275"/>
  <unicode hex="003B"/>
  <outline>
    <contour>
      <point x="293" y="377" type="line"/>
      <point x="321" y="500" type="line"/>
      <point x="213" y="500" type="line"/>
      <point x="185" y="377" type="line"/>
    </contour>
    <contour>
      <point x="256" y="123" type="line"/>
      <point x="136" y="123" type="line"/>
      <point x="19" y="-127" type="line"/>
      <point x="89" y="-127" type="line"/>
    </contour>
  </outline>
</glyph>
<glyph name="less" format="2">
  <advance width="700"/>
  <unicode hex="003C"/>
  <outline>
    <contour>
      <point x="659" y="39" type="line"/>
      <point x="673" y="101" type="line"/>
      <point x="183" y="300" type="line"/>
      <point x="765" y="499" type="line"/>
      <point x="780" y="561" type="line"/>
      <point x="126" y="331" type="line"/>
      <point x="112" y="269" type="line"/>
    </contour>
  </outline>
</glyph>
<glyph name="greater" format="2">
  <advance width="700"/>
  <unicode hex="003E"/>
  <outline>
    <contour>
      <point x="712" y="269" type="line"/>
      <point x="726" y="331" type="line"/>
      <point x="180" y="561" type="line"/>
      <point x="165" y="499" type="line"/>
      <point x="655" y="300" type="line"/>
      <point x="73" y="101" type="line"/>
      <point x="59" y="39" type="line"/>
    </contour>
  </outline>
</glyph>
<glyph name="A" format="2">
  <advance width="750"/>
  <unicode hex="0041"/>
  <anchor x="375" y="-60" name="bottom"/>
  <anchor x="667" y="10" name="bottomUC"/>
  <anchor x="539" y="800" name="top"/>
  <outline>
    <contour>
      <point x="735" y="0" type="line"/>
      <point x="595" y="724" type="line"/>
      <point x="485" y="724" type="line"/>
      <point x="15" y="0" type="line"/>
      <point x="118" y="0" type="line"/>
      <point x="242" y="193" type="line"/>
      <point x="596" y="193" type="line"/>
      <point x="629" y="0" type="line"/>
    </contour>
    <contour>
      <point x="573" y="280" type="line"/>
      <point x="300" y="280" type="line"/>
      <point x="512" y="613" type="line"/>
    </contour>
  </outline>
</glyph>
<glyph name="B" format="2">
  <advance width="643"/>
  <unicode hex="0042"/>
  <anchor x="280" y="-60" name="bottom"/>
  <anchor x="440" y="800" name="top"/>
  <outline>
    <contour>
      <point x="61" y="0" type="line"/>
      <point x="377" y="0" type="line" smooth="yes"/>
      <point x="507" y="0"/>
      <point x="644" y="110"/>
      <point x="644" y="241" type="curve" smooth="yes"/>
      <point x="644" y="322"/>
      <point x="591" y="363"/>
      <point x="534" y="385" type="curve"/>
      <point x="535" y="390" type="line"/>
      <point x="629" y="416"/>
      <point x="698" y="485"/>
      <point x="698" y="578" type="curve" smooth="yes"/>
      <point x="698" y="677"/>
      <point x="621" y="722"/>
      <point x="518" y="722" type="curve" smooth="yes"/>
      <point x="228" y="722" type="line"/>
    </contour>
    <contour>
      <point x="259" y="420" type="line"/>
      <point x="309" y="635" type="line"/>
      <point x="468" y="635" type="line" smooth="yes"/>
      <point x="557" y="635"/>
      <point x="597" y="608"/>
      <point x="597" y="557" type="curve" smooth="yes"/>
      <point x="597" y="454"/>
      <point x="505" y="420"/>
      <point x="416" y="420" type="curve" smooth="yes"/>
    </contour>
    <contour>
      <point x="182" y="87" type="line"/>
      <point x="240" y="337" type="line"/>
      <point x="392" y="337" type="line" smooth="yes"/>
      <point x="482" y="337"/>
      <point x="550" y="313"/>
      <point x="550" y="236" type="curve" smooth="yes"/>
      <point x="550" y="135"/>
      <point x="432" y="87"/>
      <point x="339" y="87" type="curve" smooth="yes"/>
    </contour>
  </outline>
</glyph>
<glyph name="C" format="2">
  <advance width="660"/>
  <unicode hex="0043"/>
  <anchor x="326" y="-70" name="bottom"/>
  <anchor x="352" y="10" name="cedillaC"/>
  <anchor x="534" y="800" name="top"/>
  <outline>
    <contour>
      <point x="114" y="217" type="curve" smooth="yes"/>
      <point x="114" y="78"/>
      <point x="180" y="-12"/>
      <point x="344" y="-12" type="curve" smooth="yes"/>
      <point x="489" y="-12"/>
      <point x="625" y="60"/>
      <point x="656" y="195" type="curve"/>
      <point x="555" y="195" type="line"/>
      <point x="536" y="111"/>
      <point x="470" y="70"/>
      <point x="370" y="70" type="curve" smooth="yes"/>
      <point x="254" y="70"/>
      <point x="215" y="124"/>
      <point x="215" y="217" type="curve" smooth="yes"/>
      <point x="215" y="389"/>
      <point x="298" y="652"/>
      <point x="503" y="652" type="curve" smooth="yes"/>
      <point x="587" y="652"/>
      <point x="633" y="629"/>
      <point x="633" y="565" type="curve" smooth="yes"/>
      <point x="633" y="556"/>
      <point x="632" y="542"/>
      <point x="628" y="527" type="curve"/>
      <point x="728" y="527" type="line"/>
      <point x="732" y="546"/>
      <point x="734" y="562"/>
      <point x="734" y="579" type="curve" smooth="yes"/>
      <point x="734" y="682"/>
      <point x="651" y="734"/>
      <point x="530" y="734" type="curve" smooth="yes"/>
      <point x="251" y="734"/>
      <point x="114" y="458"/>
    </contour>
  </outline>
  <guideline angle="0" x="0" y="-12"/>
  <guideline angle="0" x="0" y="736"/>
</glyph>
<glyph name="D" format="2">
  <advance width="690"/>
  <unicode hex="0044"/>
  <anchor x="420" y="800" name="top"/>
  <outline>
    <contour>
      <point x="739" y="479" type="curve" smooth="yes"/>
      <point x="739" y="638"/>
      <point x="640" y="722"/>
      <point x="452" y="722" type="curve" smooth="yes"/>
      <point x="227" y="722" type="line"/>
      <point x="60" y="0" type="line"/>
      <point x="285" y="0" type="line" smooth="yes"/>
      <point x="547" y="0"/>
      <point x="739" y="203"/>
    </contour>
    <contour>
      <point x="307" y="87" type="curve" smooth="yes"/>
      <point x="181" y="87" type="line"/>
      <point x="308" y="635" type="line"/>
      <point x="457" y="635" type="line" smooth="yes"/>
      <point x="574" y="635"/>
      <point x="636" y="570"/>
      <point x="636" y="446" type="curve" smooth="yes"/>
      <point x="636" y="248"/>
      <point x="489" y="87"/>
    </contour>
  </outline>
</glyph>
<glyph name="E" format="2">
  <advance width="591"/>
  <unicode hex="0045"/>
  <anchor x="300" y="-60" name="bottom"/>
  <anchor x="455" y="800" name="top"/>
  <outline>
    <contour>
      <point x="534" y="0" type="line"/>
      <point x="554" y="87" type="line"/>
      <point x="198" y="87" type="line"/>
      <point x="253" y="326" type="line"/>
      <point x="589" y="326" type="line"/>
      <point x="609" y="413" type="line"/>
      <point x="273" y="413" type="line"/>
      <point x="325" y="635" type="line"/>
      <point x="671" y="635" type="line"/>
      <point x="691" y="722" type="line"/>
      <point x="244" y="722" type="line"/>
      <point x="77" y="0" type="line"/>
    </contour>
  </outline>
</glyph>
<glyph name="F" format="2">
  <advance width="540"/>
  <unicode hex="0046"/>
  <anchor x="423" y="800" name="top"/>
  <outline>
    <contour>
      <point x="627" y="635" type="line"/>
      <point x="647" y="722" type="line"/>
      <point x="227" y="722" type="line"/>
      <point x="60" y="0" type="line"/>
      <point x="161" y="0" type="line"/>
      <point x="236" y="326" type="line"/>
      <point x="535" y="326" type="line"/>
      <point x="555" y="413" type="line"/>
      <point x="256" y="413" type="line"/>
      <point x="308" y="635" type="line"/>
    </contour>
  </outline>
</glyph>
<glyph name="G" format="2">
  <advance width="735"/>
  <unicode hex="0047"/>
  <anchor x="563" y="800" name="top"/>
  <outline>
    <contour>
      <point x="121" y="240" type="curve" smooth="yes"/>
      <point x="121" y="71"/>
      <point x="215" y="-12"/>
      <point x="409" y="-12" type="curve" smooth="yes"/>
      <point x="517" y="-12"/>
      <point x="607" y="14"/>
      <point x="679" y="38" type="curve"/>
      <point x="760" y="387" type="line"/>
      <point x="495" y="387" type="line"/>
      <point x="475" y="300" type="line"/>
      <point x="639" y="300" type="line"/>
      <point x="593" y="100" type="line"/>
      <point x="536" y="81"/>
      <point x="477" y="70"/>
      <point x="423" y="70" type="curve" smooth="yes"/>
      <point x="279" y="70"/>
      <point x="227" y="152"/>
      <point x="227" y="265" type="curve" smooth="yes"/>
      <point x="227" y="466"/>
      <point x="335" y="652"/>
      <point x="558" y="652" type="curve" smooth="yes"/>
      <point x="649" y="652"/>
      <point x="701" y="601"/>
      <point x="701" y="556" type="curve" smooth="yes"/>
      <point x="701" y="550"/>
      <point x="700" y="545"/>
      <point x="699" y="540" type="curve"/>
      <point x="800" y="540" type="line"/>
      <point x="803" y="553"/>
      <point x="804" y="564"/>
      <point x="804" y="574" type="curve" smooth="yes"/>
      <point x="804" y="680"/>
      <point x="691" y="734"/>
      <point x="561" y="734" type="curve" smooth="yes"/>
      <point x="290" y="734"/>
      <point x="121" y="499"/>
    </contour>
  </outline>
  <guideline angle="0" x="0" y="747"/>
  <guideline angle="0" x="0" y="-14"/>
</glyph>
<glyph name="I" format="2">
  <advance width="261"/>
  <unicode hex="0049"/>
  <anchor x="214" y="-75" name="bottom"/>
  <anchor x="133" y="10" name="bottomUC"/>
  <anchor x="304" y="800" name="top"/>
  <outline>
    <contour>
      <point x="181" y="0" type="line"/>
      <point x="348" y="722" type="line"/>
      <point x="247" y="722" type="line"/>
      <point x="80" y="0" type="line"/>
    </contour>
  </outline>
</glyph>
<glyph name="M" format="2">
  <advance width="892"/>
  <unicode hex="004D"/>
  <anchor x="614" y="800" name="top"/>
  <outline>
    <contour>
      <point x="815" y="0" type="line"/>
      <point x="982" y="722" type="line"/>
      <point x="823" y="722" type="line"/>
      <point x="477" y="140" type="line"/>
      <point x="403" y="722" type="line"/>
      <point x="244" y="722" type="line"/>
      <point x="77" y="0" type="line"/>
      <point x="178" y="0" type="line"/>
      <point x="322" y="622" type="line"/>
      <point x="405" y="0" type="line"/>
      <point x="485" y="0" type="line"/>
      <point x="859" y="627" type="line"/>
      <point x="714" y="0" type="line"/>
    </contour>
  </outline>
</glyph>
<glyph name="P" format="2">
  <advance width="611"/>
  <unicode hex="0050"/>
  <anchor x="440" y="800" name="top"/>
  <outline>
    <contour>
      <point x="688" y="578" type="curve" smooth="yes"/>
      <point x="688" y="691"/>
      <point x="589" y="722"/>
      <point x="448" y="722" type="curve" smooth="yes"/>
      <point x="244" y="722" type="line"/>
      <point x="77" y="0" type="line"/>
      <point x="178" y="0" type="line"/>
      <point x="249" y="306" type="line"/>
      <point x="352" y="306" type="line" smooth="yes"/>
      <point x="534" y="306"/>
      <point x="688" y="375"/>
    </contour>
    <contour>
      <point x="375" y="394" type="curve" smooth="yes"/>
      <point x="269" y="394" type="line"/>
      <point x="325" y="635" type="line"/>
      <point x="431" y="635" type="line" smooth="yes"/>
      <point x="525" y="635"/>
      <point x="587" y="618"/>
      <point x="587" y="549" type="curve" smooth="yes"/>
      <point x="587" y="422"/>
      <point x="482" y="394"/>
    </contour>
  </outline>
</glyph>
<glyph name="S" format="2">
  <advance width="642"/>
  <unicode hex="0053"/>
  <anchor x="473" y="800" name="top"/>
  <outline>
    <contour>
      <point x="98" y="217" type="line"/>
      <point x="93" y="196"/>
      <point x="91" y="177"/>
      <point x="91" y="162" type="curve" smooth="yes"/>
      <point x="91" y="53"/>
      <point x="198" y="-12"/>
      <point x="317" y="-12" type="curve" smooth="yes"/>
      <point x="529" y="-12"/>
      <point x="643" y="60"/>
      <point x="643" y="226" type="curve" smooth="yes"/>
      <point x="643" y="328"/>
      <point x="558" y="385"/>
      <point x="470" y="404" type="curve" smooth="yes"/>
      <point x="378" y="424" type="line" smooth="yes"/>
      <point x="321" y="436"/>
      <point x="279" y="459"/>
      <point x="279" y="508" type="curve" smooth="yes"/>
      <point x="279" y="603"/>
      <point x="348" y="652"/>
      <point x="435" y="652" type="curve" smooth="yes"/>
      <point x="517" y="652"/>
      <point x="591" y="635"/>
      <point x="591" y="567" type="curve" smooth="yes"/>
      <point x="591" y="559"/>
      <point x="590" y="549"/>
      <point x="587" y="537" type="curve"/>
      <point x="688" y="537" type="line"/>
      <point x="692" y="555"/>
      <point x="694" y="572"/>
      <point x="694" y="587" type="curve" smooth="yes"/>
      <point x="694" y="690"/>
      <point x="594" y="734"/>
      <point x="471" y="734" type="curve" smooth="yes"/>
      <point x="289" y="734"/>
      <point x="173" y="640"/>
      <point x="173" y="503" type="curve" smooth="yes"/>
      <point x="173" y="390"/>
      <point x="253" y="360"/>
      <point x="339" y="341" type="curve" smooth="yes"/>
      <point x="435" y="320" type="line" smooth="yes"/>
      <point x="517" y="302"/>
      <point x="540" y="256"/>
      <point x="540" y="195" type="curve" smooth="yes"/>
      <point x="540" y="118"/>
      <point x="465" y="70"/>
      <point x="334" y="70" type="curve" smooth="yes"/>
      <point x="266" y="70"/>
      <point x="194" y="121"/>
      <point x="194" y="185" type="curve" smooth="yes"/>
      <point x="194" y="193"/>
      <point x="195" y="205"/>
      <point x="198" y="217" type="curve"/>
    </contour>
  </outline>
</glyph>
<glyph name="T" format="2">
  <advance width="622"/>
  <unicode hex="0054"/>
  <anchor x="474" y="800" name="top"/>
  <outline>
    <contour>
      <point x="740" y="635" type="line"/>
      <point x="760" y="722" type="line"/>
      <point x="187" y="722" type="line"/>
      <point x="167" y="635" type="line"/>
      <point x="403" y="635" type="line"/>
      <point x="256" y="0" type="line"/>
      <point x="357" y="0" type="line"/>
      <point x="504" y="635" type="line"/>
    </contour>
  </outline>
</glyph>
<glyph name="V" format="2">
  <advance width="654"/>
  <unicode hex="0056"/>
  <anchor x="494" y="800" name="top"/>
  <outline>
    <contour>
      <point x="806" y="722" type="line"/>
      <point x="693" y="722" type="line"/>
      <point x="357" y="130" type="line"/>
      <point x="295" y="722" type="line"/>
      <point x="182" y="722" type="line"/>
      <point x="272" y="0" type="line"/>
      <point x="382" y="0" type="line"/>
    </contour>
  </outline>
</glyph>
<glyph name="W" format="2">
  <advance width="972"/>
  <unicode hex="0057"/>
  <anchor x="480" y="-60" name="bottom"/>
  <anchor x="663" y="800" name="top"/>
  <outline>
    <contour>
      <point x="1124" y="722" type="line"/>
      <point x="1018" y="722" type="line"/>
      <point x="733" y="150" type="line"/>
      <point x="713" y="722" type="line"/>
      <point x="593" y="722" type="line"/>
      <point x="309" y="150" type="line"/>
      <point x="288" y="722" type="line"/>
      <point x="182" y="722" type="line"/>
      <point x="229" y="0" type="line"/>
      <point x="319" y="0" type="line"/>
      <point x="625" y="602" type="line"/>
      <point x="653" y="0" type="line"/>
      <point x="743" y="0" type="line"/>
    </contour>
  </outline>
</glyph>
<glyph name="X" format="2">
  <advance width="684"/>
  <unicode hex="0058"/>
  <anchor x="518" y="800" name="top"/>
  <outline>
    <contour>
      <point x="669" y="0" type="line"/>
      <point x="492" y="385" type="line"/>
      <point x="801" y="722" type="line"/>
      <point x="683" y="722" type="line"/>
      <point x="454" y="456" type="line"/>
      <point x="344" y="722" type="line"/>
      <point x="216" y="722" type="line"/>
      <point x="369" y="385" type="line"/>
      <point x="15" y="0" type="line"/>
      <point x="133" y="0" type="line"/>
      <point x="407" y="314" type="line"/>
      <point x="541" y="0" type="line"/>
    </contour>
  </outline>
</glyph>
<glyph name="asciicircum" format="2">
  <advance width="622"/>
  <unicode hex="005E"/>
  <outline>
    <contour>
      <point x="574" y="10" type="line"/>
      <point x="483" y="610" type="line"/>
      <point x="421" y="610" type="line"/>
      <point x="52" y="10" type="line"/>
      <point x="114" y="10" type="line"/>
      <point x="437" y="546" type="line"/>
      <point x="512" y="10" type="line"/>
    </contour>
  </outline>
</glyph>
<glyph name="underscore" format="2">
  <advance width="500"/>
  <unicode hex="005F"/>
  <outline>
    <contour>
      <point x="480" y="-129" type="line"/>
      <point x="494" y="-60" type="line"/>
      <point x="-6" y="-60" type="line"/>
      <point x="-21" y="-129" type="line"/>
    </contour>
  </outline>
</glyph>
<glyph name="grave" format="2">
  <advance width="229"/>
  <unicode hex="0060"/>
  <outline>
    <contour>
      <point x="315" y="600" type="line"/>
      <point x="254" y="771" type="line"/>
      <point x="153" y="771" type="line"/>
      <point x="254" y="600" type="line"/>
    </contour>
  </outline>
</glyph>
<glyph name="b" format="2">
  <advance width="620"/>
  <unicode hex="0062"/>
  <anchor x="335" y="-60" name="bottom"/>
  <anchor x="315" y="800" name="top"/>
  <outline>
    <contour>
      <point x="93" y="0" type="line"/>
      <point x="180" y="0" type="line"/>
      <point x="194" y="61" type="line"/>
      <point x="220" y="26"/>
      <point x="267" y="-12"/>
      <point x="339" y="-12" type="curve" smooth="yes"/>
      <point x="505" y="-12"/>
      <point x="637" y="189"/>
      <point x="637" y="342" type="curve" smooth="yes"/>
      <point x="637" y="442"/>
      <point x="580" y="512"/>
      <point x="461" y="512" type="curve" smooth="yes"/>
      <point x="389" y="512"/>
      <point x="328" y="486"/>
      <point x="280" y="431" type="curve"/>
      <point x="347" y="722" type="line"/>
      <point x="260" y="722" type="line"/>
    </contour>
    <contour>
      <point x="228" y="176" type="curve" smooth="yes"/>
      <point x="228" y="289"/>
      <point x="296" y="454"/>
      <point x="432" y="454" type="curve" smooth="yes"/>
      <point x="507" y="454"/>
      <point x="536" y="405"/>
      <point x="536" y="336" type="curve" smooth="yes"/>
      <point x="536" y="226"/>
      <point x="464" y="57"/>
      <point x="329" y="57" type="curve" smooth="yes"/>
      <point x="264" y="57"/>
      <point x="228" y="95"/>
    </contour>
  </outline>
</glyph>
<glyph name="c" format="2">
  <advance width="544"/>
  <unicode hex="0063"/>
  <anchor x="273" y="-60" name="bottom"/>
  <anchor x="278" y="10" name="cedillaC"/>
  <anchor x="418" y="580" name="top"/>
  <outline>
    <contour>
      <point x="107" y="164" type="curve" smooth="yes"/>
      <point x="107" y="46"/>
      <point x="167" y="-12"/>
      <point x="277" y="-12" type="curve" smooth="yes"/>
      <point x="399" y="-12"/>
      <point x="499" y="60"/>
      <point x="530" y="169" type="curve"/>
      <point x="436" y="169" type="line"/>
      <point x="417" y="97"/>
      <point x="363" y="52"/>
      <point x="293" y="52" type="curve" smooth="yes"/>
      <point x="233" y="52"/>
      <point x="201" y="86"/>
      <point x="201" y="167" type="curve" smooth="yes"/>
      <point x="201" y="274"/>
      <point x="257" y="447"/>
      <point x="389" y="447" type="curve" smooth="yes"/>
      <point x="448" y="447"/>
      <point x="474" y="413"/>
      <point x="474" y="366" type="curve" smooth="yes"/>
      <point x="474" y="357"/>
      <point x="473" y="349"/>
      <point x="472" y="341" type="curve"/>
      <point x="565" y="341" type="line"/>
      <point x="567" y="354"/>
      <point x="568" y="366"/>
      <point x="568" y="377" type="curve" smooth="yes"/>
      <point x="568" y="466"/>
      <point x="508" y="512"/>
      <point x="413" y="512" type="curve" smooth="yes"/>
      <point x="219" y="512"/>
      <point x="107" y="326"/>
    </contour>
  </outline>
</glyph>
<glyph name="f" format="2">
  <advance width="340"/>
  <unicode hex="0066"/>
  <anchor x="364" y="800" name="top"/>
  <outline>
    <contour>
      <point x="110" y="435" type="line"/>
      <point x="210" y="435" type="line"/>
      <point x="110" y="0" type="line"/>
      <point x="200" y="0" type="line"/>
      <point x="300" y="435" type="line"/>
      <point x="420" y="435" type="line"/>
      <point x="435" y="500" type="line"/>
      <point x="315" y="500" type="line"/>
      <point x="332" y="573" type="line" smooth="yes"/>
      <point x="346" y="632"/>
      <point x="371" y="660"/>
      <point x="427" y="660" type="curve" smooth="yes"/>
      <point x="445" y="660"/>
      <point x="464" y="657"/>
      <point x="481" y="648" type="curve"/>
      <point x="498" y="722" type="line"/>
      <point x="477" y="729"/>
      <point x="452" y="732"/>
      <point x="425" y="732" type="curve" smooth="yes"/>
      <point x="322" y="732"/>
      <point x="269" y="688"/>
      <point x="243" y="575" type="curve" smooth="yes"/>
      <point x="225" y="500" type="line"/>
      <point x="125" y="500" type="line"/>
    </contour>
  </outline>
</glyph>
<glyph name="l" format="2">
  <advance width="276"/>
  <unicode hex="006C"/>
  <anchor x="120" y="-60" name="bottom"/>
  <anchor x="365" y="361" name="dotCN"/>
  <anchor x="313" y="800" name="top"/>
  <outline>
    <contour>
      <point x="183" y="0" type="line"/>
      <point x="350" y="722" type="line"/>
      <point x="260" y="722" type="line"/>
      <point x="93" y="0" type="line"/>
    </contour>
  </outline>
</glyph>
<glyph name="m" format="2">
  <advance width="935"/>
  <unicode hex="006D"/>
  <anchor x="473" y="-60" name="bottom"/>
  <anchor x="573" y="580" name="top"/>
  <outline>
    <contour>
      <point x="93" y="0" type="line"/>
      <point x="183" y="0" type="line"/>
      <point x="258" y="323" type="line" smooth="yes"/>
      <point x="271" y="379"/>
      <point x="346" y="448"/>
      <point x="420" y="448" type="curve" smooth="yes"/>
      <point x="476" y="448"/>
      <point x="507" y="408"/>
      <point x="507" y="356" type="curve" smooth="yes"/>
      <point x="507" y="346"/>
      <point x="506" y="334"/>
      <point x="503" y="323" type="curve"/>
      <point x="428" y="0" type="line"/>
      <point x="518" y="0" type="line"/>
      <point x="593" y="323" type="line" smooth="yes"/>
      <point x="606" y="379"/>
      <point x="680" y="448"/>
      <point x="758" y="448" type="curve" smooth="yes"/>
      <point x="810" y="448"/>
      <point x="839" y="418"/>
      <point x="839" y="366" type="curve" smooth="yes"/>
      <point x="839" y="353"/>
      <point x="837" y="338"/>
      <point x="833" y="322" type="curve" smooth="yes"/>
      <point x="759" y="0" type="line"/>
      <point x="849" y="0" type="line"/>
      <point x="925" y="325" type="line" smooth="yes"/>
      <point x="930" y="349"/>
      <point x="933" y="370"/>
      <point x="933" y="389" type="curve" smooth="yes"/>
      <point x="933" y="470"/>
      <point x="882" y="512"/>
      <point x="782" y="512" type="curve" smooth="yes"/>
      <point x="716" y="512"/>
      <point x="656" y="482"/>
      <point x="600" y="423" type="curve"/>
      <point x="577" y="485"/>
      <point x="546" y="512"/>
      <point x="450" y="512" type="curve" smooth="yes"/>
      <point x="391" y="512"/>
      <point x="336" y="486"/>
      <point x="283" y="431" type="curve"/>
      <point x="298" y="500" type="line"/>
      <point x="208" y="500" type="line"/>
    </contour>
  </outline>
</glyph>
<glyph name="s" format="2">
  <advance width="518"/>
  <unicode hex="0073"/>
  <anchor x="262" y="-60" name="bottom"/>
  <anchor x="377" y="580" name="top"/>
  <outline>
    <contour>
      <point x="94" y="144" type="line"/>
      <point x="90" y="128"/>
      <point x="89" y="113"/>
      <point x="89" y="102" type="curve" smooth="yes"/>
      <point x="89" y="21"/>
      <point x="149" y="-14"/>
      <point x="244" y="-14" type="curve" smooth="yes"/>
      <point x="365" y="-14"/>
      <point x="503" y="43"/>
      <point x="503" y="182" type="curve" smooth="yes"/>
      <point x="503" y="259"/>
      <point x="429" y="275"/>
      <point x="361" y="290" type="curve" smooth="yes"/>
      <point x="303" y="302"/>
      <point x="250" y="314"/>
      <point x="250" y="361" type="curve" smooth="yes"/>
      <point x="250" y="414"/>
      <point x="317" y="447"/>
      <point x="380" y="447" type="curve" smooth="yes"/>
      <point x="424" y="447"/>
      <point x="450" y="430"/>
      <point x="450" y="391" type="curve" smooth="yes"/>
      <point x="450" y="384"/>
      <point x="449" y="375"/>
      <point x="447" y="366" type="curve"/>
      <point x="538" y="366" type="line"/>
      <point x="542" y="383"/>
      <point x="544" y="398"/>
      <point x="544" y="411" type="curve" smooth="yes"/>
      <point x="544" y="487"/>
      <point x="483" y="512"/>
      <point x="384" y="512" type="curve" smooth="yes"/>
      <point x="270" y="512"/>
      <point x="156" y="457"/>
      <point x="156" y="333" type="curve" smooth="yes"/>
      <point x="156" y="252"/>
      <point x="230" y="235"/>
      <point x="298" y="219" type="curve" smooth="yes"/>
      <point x="356" y="206"/>
      <point x="409" y="193"/>
      <point x="409" y="144" type="curve" smooth="yes"/>
      <point x="409" y="83"/>
      <point x="325" y="51"/>
      <point x="264" y="51" type="curve" smooth="yes"/>
      <point x="213" y="51"/>
      <point x="183" y="73"/>
      <point x="183" y="117" type="curve" smooth="yes"/>
      <point x="183" y="125"/>
      <point x="184" y="134"/>
      <point x="186" y="144" type="curve"/>
    </contour>
  </outline>
</glyph>
<glyph name="u" format="2">
  <advance width="612"/>
  <unicode hex="0075"/>
  <anchor x="279" y="-60" name="bottom"/>
  <anchor x="471" y="10" name="bottomUC"/>
  <anchor x="418" y="580" name="top"/>
  <outline>
    <contour>
      <point x="122" y="108" type="curve" smooth="yes"/>
      <point x="122" y="26"/>
      <point x="174" y="-12"/>
      <point x="269" y="-12" type="curve" smooth="yes"/>
      <point x="347" y="-12"/>
      <point x="404" y="13"/>
      <point x="449" y="64" type="curve"/>
      <point x="434" y="0" type="line"/>
      <point x="524" y="0" type="line"/>
      <point x="639" y="500" type="line"/>
      <point x="549" y="500" type="line"/>
      <point x="475" y="178" type="line" smooth="yes"/>
      <point x="458" y="103"/>
      <point x="386" y="49"/>
      <point x="316" y="49" type="curve" smooth="yes"/>
      <point x="255" y="49"/>
      <point x="216" y="89"/>
      <point x="216" y="143" type="curve" smooth="yes"/>
      <point x="216" y="151"/>
      <point x="217" y="160"/>
      <point x="219" y="169" type="curve" smooth="yes"/>
      <point x="295" y="500" type="line"/>
      <point x="205" y="500" type="line"/>
      <point x="130" y="171" type="line" smooth="yes"/>
      <point x="125" y="148"/>
      <point x="122" y="127"/>
    </contour>
  </outline>
</glyph>
<glyph name="v" format="2">
  <advance width="586"/>
  <unicode hex="0076"/>
  <anchor x="285" y="-60" name="bottom"/>
  <anchor x="404" y="580" name="top"/>
  <outline>
    <contour>
      <point x="659" y="500" type="line"/>
      <point x="564" y="500" type="line"/>
      <point x="322" y="110" type="line"/>
      <point x="259" y="500" type="line"/>
      <point x="154" y="500" type="line"/>
      <point x="246" y="0" type="line"/>
      <point x="338" y="0" type="line"/>
    </contour>
  </outline>
</glyph>
<glyph name="y" format="2">
  <advance width="558"/>
  <unicode hex="0079"/>
  <anchor x="450" y="-60" name="bottom"/>
  <anchor x="404" y="580" name="top"/>
  <outline>
    <contour>
      <point x="133" y="-200" type="line"/>
      <point x="225" y="-200" type="line"/>
      <point x="659" y="500" type="line"/>
      <point x="562" y="500" type="line"/>
      <point x="329" y="124" type="line"/>
      <point x="259" y="500" type="line"/>
      <point x="154" y="500" type="line"/>
      <point x="252" y="1" type="line"/>
    </contour>
  </outline>
</glyph>
<glyph name="asciitilde" format="2">
  <advance width="637"/>
  <unicode hex="007E"/>
  <outline>
    <contour>
      <point x="99" y="195" type="curve"/>
      <point x="190" y="195" type="line"/>
      <point x="220" y="224"/>
      <point x="248" y="238"/>
      <point x="275" y="238" type="curve" smooth="yes"/>
      <point x="292" y="238"/>
      <point x="406" y="198"/>
      <point x="477" y="198" type="curve" smooth="yes"/>
      <point x="541" y="198"/>
      <point x="638" y="263"/>
      <point x="660" y="315" type="curve"/>
      <point x="572" y="315" type="line"/>
      <point x="543" y="287"/>
      <point x="514" y="273"/>
      <point x="487" y="273" type="curve" smooth="yes"/>
      <point x="472" y="273"/>
      <point x="353" y="313"/>
      <point x="281" y="313" type="curve" smooth="yes"/>
      <point x="218" y="313"/>
      <point x="121" y="248"/>
    </contour>
  </outline>
</glyph>
<glyph name="exclamdown" format="2">
  <advance width="200"/>
  <unicode hex="00A1"/>
  <outline>
    <contour>
      <point x="104" y="-198" type="line"/>
      <point x="226" y="331" type="line"/>
      <point x="143" y="331" type="line"/>
      <point x="21" y="-198" type="line"/>
    </contour>
    <contour>
      <point x="244" y="405" type="line"/>
      <point x="265" y="500" type="line"/>
      <point x="165" y="500" type="line"/>
      <point x="144" y="405" type="line"/>
    </contour>
  </outline>
</glyph>
<glyph name="sterling" format="2">
  <advance width="558"/>
  <unicode hex="00A3"/>
  <outline>
    <contour>
      <point x="247" y="579" type="curve" smooth="yes"/>
      <point x="218" y="456" type="line"/>
      <point x="149" y="456" type="line"/>
      <point x="134" y="392" type="line"/>
      <point x="204" y="392" type="line"/>
      <point x="128" y="64" type="line"/>
      <point x="59" y="64" type="line"/>
      <point x="44" y="0" type="line"/>
      <point x="523" y="0" type="line"/>
      <point x="538" y="64" type="line"/>
      <point x="217" y="64" type="line"/>
      <point x="292" y="392" type="line"/>
      <point x="458" y="392" type="line"/>
      <point x="472" y="456" type="line"/>
      <point x="307" y="456" type="line"/>
      <point x="336" y="579" type="line" smooth="yes"/>
      <point x="350" y="638"/>
      <point x="423" y="672"/>
      <point x="482" y="672" type="curve" smooth="yes"/>
      <point x="536" y="672"/>
      <point x="590" y="643"/>
      <point x="590" y="596" type="curve" smooth="yes"/>
      <point x="590" y="590"/>
      <point x="589" y="584"/>
      <point x="588" y="579" type="curve"/>
      <point x="677" y="579" type="line"/>
      <point x="679" y="589"/>
      <point x="680" y="598"/>
      <point x="680" y="607" type="curve" smooth="yes"/>
      <point x="680" y="688"/>
      <point x="592" y="736"/>
      <point x="498" y="736" type="curve" smooth="yes"/>
      <point x="394" y="736"/>
      <point x="270" y="677"/>
    </contour>
  </outline>
</glyph>
<glyph name="section" format="2">
  <advance width="467"/>
  <unicode hex="00A7"/>
  <outline>
    <contour>
      <point x="265" y="205" type="curve"/>
      <point x="237" y="223" type="line" smooth="yes"/>
      <point x="219" y="234"/>
      <point x="191" y="257"/>
      <point x="191" y="286" type="curve" smooth="yes"/>
      <point x="191" y="354"/>
      <point x="266" y="381"/>
      <point x="324" y="391" type="curve"/>
      <point x="381" y="357" type="line" smooth="yes"/>
      <point x="394" y="349"/>
      <point x="402" y="333"/>
      <point x="402" y="320" type="curve" smooth="yes"/>
      <point x="402" y="277"/>
      <point x="354" y="234"/>
    </contour>
    <contour>
      <point x="531" y="631" type="curve"/>
      <point x="546" y="699" type="line"/>
      <point x="511" y="722"/>
      <point x="465" y="735"/>
      <point x="414" y="735" type="curve" smooth="yes"/>
      <point x="278" y="735"/>
      <point x="195" y="662"/>
      <point x="195" y="549" type="curve" smooth="yes"/>
      <point x="195" y="506"/>
      <point x="216" y="472"/>
      <point x="244" y="449" type="curve" smooth="yes"/>
      <point x="261" y="435" type="line"/>
      <point x="189" y="417"/>
      <point x="101" y="369"/>
      <point x="101" y="269" type="curve" smooth="yes"/>
      <point x="101" y="219"/>
      <point x="140" y="181"/>
      <point x="186" y="152" type="curve" smooth="yes"/>
      <point x="269" y="99" type="line" smooth="yes"/>
      <point x="317" y="69"/>
      <point x="321" y="40"/>
      <point x="321" y="12" type="curve" smooth="yes"/>
      <point x="321" y="-73"/>
      <point x="247" y="-104"/>
      <point x="180" y="-104" type="curve" smooth="yes"/>
      <point x="145" y="-104"/>
      <point x="84" y="-92"/>
      <point x="48" y="-63" type="curve"/>
      <point x="31" y="-140" type="line"/>
      <point x="58" y="-156"/>
      <point x="117" y="-173"/>
      <point x="164" y="-173" type="curve" smooth="yes"/>
      <point x="310" y="-173"/>
      <point x="422" y="-103"/>
      <point x="422" y="37" type="curve" smooth="yes"/>
      <point x="422" y="82"/>
      <point x="394" y="118"/>
      <point x="360" y="142" type="curve" smooth="yes"/>
      <point x="337" y="158" type="line"/>
      <point x="410" y="191"/>
      <point x="494" y="247"/>
      <point x="494" y="331" type="curve" smooth="yes"/>
      <point x="494" y="365"/>
      <point x="477" y="406"/>
      <point x="422" y="440" type="curve" smooth="yes"/>
      <point x="359" y="478" type="line" smooth="yes"/>
      <point x="313" y="507"/>
      <point x="293" y="527"/>
      <point x="293" y="571" type="curve" smooth="yes"/>
      <point x="293" y="627"/>
      <point x="343" y="671"/>
      <point x="405" y="671" type="curve" smooth="yes"/>
      <point x="454" y="671"/>
      <point x="496" y="657"/>
    </contour>
  </outline>
</glyph>
<glyph name="guillemotleft" format="2">
  <advance width="557"/>
  <unicode hex="00AB"/>
  <outline>
    <contour>
      <point x="302" y="57" type="line"/>
      <point x="227" y="252" type="line"/>
      <point x="392" y="447" type="line"/>
      <point x="314" y="447" type="line"/>
      <point x="132" y="252" type="line"/>
      <point x="224" y="57" type="line"/>
    </contour>
    <contour>
      <point x="497" y="57" type="line"/>
      <point x="422" y="252" type="line"/>
      <point x="587" y="447" type="line"/>
      <point x="509" y="447" type="line"/>
      <point x="327" y="252" type="line"/>
      <point x="419" y="57" type="line"/>
    </contour>
  </outline>
</glyph>
<glyph name="logicalnot" format="2">
  <advance width="618"/>
  <unicode hex="00AC"/>
  <outline>
    <contour>
      <point x="623" y="189" type="line"/>
      <point x="676" y="420" type="line"/>
      <point x="136" y="420" type="line"/>
      <point x="118" y="338" type="line"/>
      <point x="578" y="338" type="line"/>
      <point x="543" y="189" type="line"/>
    </contour>
  </outline>
</glyph>
<glyph name="uni00AD" format="2">
  <advance width="307"/>
  <unicode hex="00AD"/>
  <outline>
    <contour>
      <point x="330" y="258" type="line"/>
      <point x="348" y="340" type="line"/>
      <point x="118" y="340" type="line"/>
      <point x="100" y="258" type="line"/>
    </contour>
  </outline>
</glyph>
<glyph name="registered" format="2">
  <advance width="496"/>
  <unicode hex="00AE"/>
  <outline>
    <contour>
      <point x="321" y="422" type="curve" smooth="yes"/>
      <point x="263" y="422"/>
      <point x="220" y="467"/>
      <point x="220" y="520" type="curve" smooth="yes"/>
      <point x="220" y="618"/>
      <point x="283" y="717"/>
      <point x="414" y="717" type="curve" smooth="yes"/>
      <point x="471" y="717"/>
      <point x="512" y="668"/>
      <point x="512" y="618" type="curve" smooth="yes"/>
      <point x="512" y="513"/>
      <point x="438" y="422"/>
    </contour>
    <contour>
      <point x="568" y="611" type="curve" smooth="yes"/>
      <point x="568" y="703"/>
      <point x="504" y="766"/>
      <point x="416" y="766" type="curve" smooth="yes"/>
      <point x="273" y="766"/>
      <point x="164" y="655"/>
      <point x="164" y="520" type="curve" smooth="yes"/>
      <point x="164" y="436"/>
      <point x="228" y="373"/>
      <point x="322" y="373" type="curve" smooth="yes"/>
      <point x="447" y="373"/>
      <point x="568" y="485"/>
    </contour>
    <contour>
      <point x="279" y="481" type="line"/>
      <point x="330" y="481" type="line"/>
      <point x="347" y="559" type="line"/>
      <point x="353" y="559" type="line" smooth="yes"/>
      <point x="364" y="559"/>
      <point x="373" y="553"/>
      <point x="373" y="535" type="curve" smooth="yes"/>
      <point x="373" y="522"/>
      <point x="368" y="495"/>
      <point x="368" y="481" type="curve"/>
      <point x="424" y="481" type="line"/>
      <point x="423" y="500"/>
      <point x="426" y="525"/>
      <point x="426" y="553" type="curve" smooth="yes"/>
      <point x="426" y="565"/>
      <point x="419" y="574"/>
      <point x="405" y="578" type="curve"/>
      <point x="433" y="586"/>
      <point x="447" y="607"/>
      <point x="447" y="633" type="curve" smooth="yes"/>
      <point x="447" y="657"/>
      <point x="434" y="671"/>
      <point x="394" y="671" type="curve" smooth="yes"/>
      <point x="319" y="671" type="line"/>
    </contour>
    <contour>
      <point x="354" y="594" type="line"/>
      <point x="365" y="644" type="line"/>
      <point x="370" y="644" type="line" smooth="yes"/>
      <point x="390" y="644"/>
      <point x="395" y="639"/>
      <point x="395" y="624" type="curve" smooth="yes"/>
      <point x="395" y="600"/>
      <point x="381" y="594"/>
      <point x="357" y="594" type="curve" smooth="yes"/>
    </contour>
  </outline>
  <guideline angle="0" x="0" y="722"/>
  <guideline angle="0" x="0" y="413"/>
</glyph>
<glyph name="plusminus" format="2">
  <advance width="1000"/>
  <unicode hex="00B1"/>
  <outline>
    <contour>
      <point x="883" y="358" type="line"/>
      <point x="897" y="422" type="line"/>
      <point x="630" y="422" type="line"/>
      <point x="672" y="600" type="line"/>
      <point x="606" y="600" type="line"/>
      <point x="564" y="422" type="line"/>
      <point x="297" y="422" type="line"/>
      <point x="283" y="358" type="line"/>
      <point x="550" y="358" type="line"/>
      <point x="508" y="178" type="line"/>
      <point x="574" y="178" type="line"/>
      <point x="616" y="358" type="line"/>
    </contour>
    <contour>
      <point x="800" y="0" type="line"/>
      <point x="814" y="64" type="line"/>
      <point x="214" y="64" type="line"/>
      <point x="200" y="0" type="line"/>
    </contour>
  </outline>
</glyph>
<glyph name="twosuperior" format="2">
  <advance width="353"/>
  <unicode hex="00B2"/>
  <outline>
    <contour>
      <point x="109" y="351" type="line"/>
      <point x="402" y="351" type="line"/>
      <point x="416" y="410" type="line"/>
      <point x="214" y="410" type="line"/>
      <point x="257" y="439" type="line" smooth="yes"/>
      <point x="404" y="538"/>
      <point x="464" y="580"/>
      <point x="464" y="653" type="curve" smooth="yes"/>
      <point x="464" y="717"/>
      <point x="417" y="743"/>
      <point x="344" y="743" type="curve" smooth="yes"/>
      <point x="269" y="743"/>
      <point x="200" y="693"/>
      <point x="180" y="624" type="curve"/>
      <point x="255" y="624" type="line"/>
      <point x="269" y="664"/>
      <point x="294" y="684"/>
      <point x="336" y="684" type="curve" smooth="yes"/>
      <point x="369" y="684"/>
      <point x="388" y="672"/>
      <point x="388" y="643" type="curve" smooth="yes"/>
      <point x="388" y="599"/>
      <point x="342" y="556"/>
      <point x="174" y="448" type="curve" smooth="yes"/>
      <point x="124" y="416" type="line"/>
    </contour>
  </outline>
</glyph>
<glyph name="threesuperior" format="2">
  <advance width="371"/>
  <unicode hex="00B3"/>
  <outline>
    <contour>
      <point x="366" y="544" type="line"/>
      <point x="439" y="568"/>
      <point x="478" y="607"/>
      <point x="478" y="656" type="curve" smooth="yes"/>
      <point x="478" y="706"/>
      <point x="434" y="736"/>
      <point x="361" y="736" type="curve" smooth="yes"/>
      <point x="274" y="736"/>
      <point x="209" y="693"/>
      <point x="193" y="625" type="curve"/>
      <point x="261" y="625" type="line"/>
      <point x="279" y="666"/>
      <point x="303" y="683"/>
      <point x="341" y="683" type="curve" smooth="yes"/>
      <point x="378" y="683"/>
      <point x="400" y="666"/>
      <point x="400" y="639" type="curve" smooth="yes"/>
      <point x="400" y="599"/>
      <point x="351" y="569"/>
      <point x="286" y="569" type="curve"/>
      <point x="274" y="516" type="line"/>
      <point x="340" y="516"/>
      <point x="367" y="502"/>
      <point x="367" y="470" type="curve" smooth="yes"/>
      <point x="367" y="429"/>
      <point x="323" y="399"/>
      <point x="268" y="399" type="curve" smooth="yes"/>
      <point x="228" y="399"/>
      <point x="209" y="415"/>
      <point x="209" y="447" type="curve" smooth="yes"/>
      <point x="209" y="454"/>
      <point x="209" y="457"/>
      <point x="210" y="461" type="curve"/>
      <point x="137" y="461" type="line"/>
      <point x="136" y="453"/>
      <point x="135" y="445"/>
      <point x="135" y="436" type="curve" smooth="yes"/>
      <point x="135" y="379"/>
      <point x="183" y="340"/>
      <point x="255" y="340" type="curve" smooth="yes"/>
      <point x="365" y="340"/>
      <point x="441" y="392"/>
      <point x="441" y="467" type="curve" smooth="yes"/>
      <point x="441" y="510"/>
      <point x="416" y="537"/>
      <point x="366" y="550" type="curve"/>
      <point x="368" y="547" type="line"/>
    </contour>
  </outline>
</glyph>
<glyph name="cedilla" format="2">
  <advance width="250"/>
  <unicode hex="00B8"/>
  <outline>
    <contour>
      <point x="-6" y="-234" type="line"/>
      <point x="32" y="-240"/>
      <point x="63" y="-243"/>
      <point x="87" y="-243" type="curve" smooth="yes"/>
      <point x="158" y="-243"/>
      <point x="265" y="-216"/>
      <point x="265" y="-132" type="curve" smooth="yes"/>
      <point x="265" y="-77"/>
      <point x="219" y="-50"/>
      <point x="133" y="-50" type="curve"/>
      <point x="145" y="0" type="line"/>
      <point x="105" y="0" type="line"/>
      <point x="82" y="-100" type="line"/>
      <point x="116" y="-100" type="line" smooth="yes"/>
      <point x="150" y="-100"/>
      <point x="190" y="-116"/>
      <point x="190" y="-151" type="curve" smooth="yes"/>
      <point x="190" y="-190"/>
      <point x="140" y="-196"/>
      <point x="103" y="-196" type="curve" smooth="yes"/>
      <point x="73" y="-196"/>
      <point x="40" y="-192"/>
      <point x="6" y="-184" type="curve"/>
    </contour>
  </outline>
</glyph>
<glyph name="onequarter" format="2">
  <advance width="799"/>
  <unicode hex="00BC"/>
  <outline>
    <component base="onesuperior"/>
    <contour>
      <point x="783" y="736" type="line"/>
      <point x="714" y="736" type="line"/>
      <point x="115" y="-14" type="line"/>
      <point x="184" y="-14" type="line"/>
    </contour>
    <contour>
      <point x="766" y="95" type="line"/>
      <point x="778" y="148" type="line"/>
      <point x="697" y="148" type="line"/>
      <point x="753" y="390" type="line"/>
      <point x="683" y="390" type="line"/>
      <point x="453" y="147" type="line"/>
      <point x="441" y="95" type="line"/>
      <point x="621" y="95" type="line"/>
      <point x="599" y="0" type="line"/>
      <point x="663" y="0" type="line"/>
      <point x="685" y="95" type="line"/>
    </contour>
    <contour>
      <point x="633" y="149" type="line"/>
      <point x="512" y="149" type="line"/>
      <point x="671" y="314" type="line"/>
    </contour>
  </outline>
</glyph>
<glyph name="onehalf" format="2">
  <advance width="799"/>
  <unicode hex="00BD"/>
  <outline>
    <component base="twosuperior" xOffset="346" yOffset="-351"/>
    <component base="onesuperior"/>
    <contour>
      <point x="783" y="736" type="line"/>
      <point x="714" y="736" type="line"/>
      <point x="115" y="-14" type="line"/>
      <point x="184" y="-14" type="line"/>
    </contour>
  </outline>
</glyph>
<glyph name="threequarters" format="2">
  <advance width="799"/>
  <unicode hex="00BE"/>
  <outline>
    <component base="threesuperior"/>
    <contour>
      <point x="831" y="736" type="line"/>
      <point x="762" y="736" type="line"/>
      <point x="163" y="-14" type="line"/>
      <point x="232" y="-14" type="line"/>
    </contour>
    <contour>
      <point x="790" y="95" type="line"/>
      <point x="802" y="148" type="line"/>
      <point x="721" y="148" type="line"/>
      <point x="777" y="390" type="line"/>
      <point x="707" y="390" type="line"/>
      <point x="477" y="147" type="line"/>
      <point x="465" y="95" type="line"/>
      <point x="645" y="95" type="line"/>
      <point x="623" y="0" type="line"/>
      <point x="687" y="0" type="line"/>
      <point x="709" y="95" type="line"/>
    </contour>
    <contour>
      <point x="656" y="148" type="line"/>
      <point x="535" y="148" type="line"/>
      <point x="694" y="313" type="line"/>
    </contour>
  </outline>
</glyph>
<glyph name="questiondown" format="2">
  <advance width="516"/>
  <unicode hex="00BF"/>
  <outline>
    <contour>
      <point x="390" y="234" type="curve" smooth="yes"/>
      <point x="413" y="334" type="line"/>
      <point x="333" y="334" type="line"/>
      <point x="314" y="250" type="line" smooth="yes"/>
      <point x="307" y="217"/>
      <point x="263" y="189"/>
      <point x="213" y="157" type="curve" smooth="yes"/>
      <point x="137" y="109"/>
      <point x="47" y="52"/>
      <point x="47" y="-47" type="curve" smooth="yes"/>
      <point x="47" y="-142"/>
      <point x="130" y="-198"/>
      <point x="235" y="-198" type="curve" smooth="yes"/>
      <point x="329" y="-198"/>
      <point x="410" y="-154"/>
      <point x="475" y="-66" type="curve"/>
      <point x="418" y="-24" type="line"/>
      <point x="372" y="-85"/>
      <point x="328" y="-103"/>
      <point x="256" y="-103" type="curve" smooth="yes"/>
      <point x="202" y="-103"/>
      <point x="148" y="-80"/>
      <point x="148" y="-28" type="curve" smooth="yes"/>
      <point x="148" y="29"/>
      <point x="211" y="72"/>
      <point x="272" y="113" type="curve" smooth="yes"/>
      <point x="326" y="149"/>
      <point x="378" y="184"/>
    </contour>
    <contour>
      <point x="441" y="405" type="line"/>
      <point x="462" y="500" type="line"/>
      <point x="362" y="500" type="line"/>
      <point x="341" y="405" type="line"/>
    </contour>
  </outline>
</glyph>
<glyph name="germandbls" format="2">
  <advance width="558"/>
  <unicode hex="00DF"/>
  <outline>
    <contour>
      <point x="49" y="0" type="line"/>
      <point x="144" y="0" type="line"/>
      <point x="264" y="513" type="line" smooth="yes"/>
      <point x="287" y="610"/>
      <point x="365" y="654"/>
      <point x="438" y="654" type="curve" smooth="yes"/>
      <point x="496" y="654"/>
      <point x="514" y="627"/>
      <point x="514" y="591" type="curve" smooth="yes"/>
      <point x="514" y="478"/>
      <point x="340" y="498"/>
      <point x="340" y="361" type="curve" smooth="yes"/>
      <point x="340" y="254"/>
      <point x="503" y="257"/>
      <point x="503" y="158" type="curve" smooth="yes"/>
      <point x="503" y="122"/>
      <point x="483" y="70"/>
      <point x="430" y="70" type="curve" smooth="yes"/>
      <point x="373" y="70"/>
      <point x="338" y="85"/>
      <point x="338" y="124" type="curve" smooth="yes"/>
      <point x="338" y="130"/>
      <point x="339" y="137"/>
      <point x="340" y="141" type="curve"/>
      <point x="240" y="141" type="line"/>
      <point x="238" y="133"/>
      <point x="237" y="125"/>
      <point x="237" y="117" type="curve" smooth="yes"/>
      <point x="237" y="49"/>
      <point x="304" y="-12"/>
      <point x="407" y="-12" type="curve" smooth="yes"/>
      <point x="520" y="-12"/>
      <point x="600" y="62"/>
      <point x="600" y="189" type="curve" smooth="yes"/>
      <point x="600" y="315"/>
      <point x="441" y="327"/>
      <point x="441" y="381" type="curve" smooth="yes"/>
      <point x="441" y="439"/>
      <point x="618" y="478"/>
      <point x="618" y="610" type="curve" smooth="yes"/>
      <point x="618" y="692"/>
      <point x="549" y="736"/>
      <point x="439" y="736" type="curve" smooth="yes"/>
      <point x="308" y="736"/>
      <point x="206" y="673"/>
      <point x="184" y="579" type="curve" smooth="yes"/>
    </contour>
  </outline>
</glyph>
<glyph name="oslash" format="2">
  <advance width="591"/>
  <unicode hex="00F8"/>
  <anchor x="400" y="580" name="top"/>
  <outline>
    <component base="o" xOffset="-13"/>
    <contour>
      <point x="21" y="-44" type="line"/>
      <point x="63" y="-81" type="line"/>
      <point x="678" y="554" type="line"/>
      <point x="635" y="591" type="line"/>
    </contour>
  </outline>
</glyph>
<glyph name="thorn" format="2">
  <advance width="598"/>
  <unicode hex="00FE"/>
  <outline>
    <contour>
      <point x="619" y="343" type="curve" smooth="yes"/>
      <point x="619" y="448"/>
      <point x="563" y="512"/>
      <point x="442" y="512" type="curve" smooth="yes"/>
      <point x="370" y="512"/>
      <point x="311" y="489"/>
      <point x="260" y="436" type="curve"/>
      <point x="326" y="722" type="line"/>
      <point x="236" y="722" type="line"/>
      <point x="23" y="-200" type="line"/>
      <point x="113" y="-200" type="line"/>
      <point x="171" y="54" type="line"/>
      <point x="209" y="1"/>
      <point x="264" y="-12"/>
      <point x="316" y="-12" type="curve" smooth="yes"/>
      <point x="510" y="-12"/>
      <point x="619" y="165"/>
    </contour>
    <contour>
      <point x="410" y="447" type="curve" smooth="yes"/>
      <point x="485" y="447"/>
      <point x="518" y="398"/>
      <point x="518" y="321" type="curve" smooth="yes"/>
      <point x="518" y="209"/>
      <point x="448" y="52"/>
      <point x="316" y="52" type="curve" smooth="yes"/>
      <point x="241" y="52"/>
      <point x="208" y="102"/>
      <point x="208" y="179" type="curve" smooth="yes"/>
      <point x="208" y="291"/>
      <point x="278" y="447"/>
    </contour>
  </outline>
</glyph>
<glyph name="dcroat" format="2">
  <advance width="579"/>
  <unicode hex="0111"/>
  <outline>
    <component base="d"/>
    <contour>
      <point x="430" y="573" type="line"/>
      <point x="732" y="573" type="line"/>
      <point x="748" y="642" type="line"/>
      <point x="446" y="642" type="line"/>
    </contour>
  </outline>
</glyph>
<glyph name="dotlessi" format="2">
  <advance width="229"/>
  <unicode hex="0131"/>
  <anchor x="106" y="-60" name="bottom"/>
  <anchor x="233" y="580" name="top"/>
  <outline>
    <contour>
      <point x="160" y="0" type="line"/>
      <point x="275" y="500" type="line"/>
      <point x="185" y="500" type="line"/>
      <point x="70" y="0" type="line"/>
    </contour>
  </outline>
</glyph>
<glyph name="Lslash" format="2">
  <advance width="590"/>
  <unicode hex="0141"/>
  <outline>
    <contour>
      <point x="561" y="0" type="line"/>
      <point x="581" y="87" type="line"/>
      <point x="262" y="87" type="line"/>
      <point x="334" y="398" type="line"/>
      <point x="464" y="502" type="line"/>
      <point x="483" y="584" type="line"/>
      <point x="353" y="479" type="line"/>
      <point x="409" y="722" type="line"/>
      <point x="308" y="722" type="line"/>
      <point x="229" y="380" type="line"/>
      <point x="98" y="275" type="line"/>
      <point x="80" y="196" type="line"/>
      <point x="210" y="300" type="line"/>
      <point x="141" y="0" type="line"/>
    </contour>
  </outline>
</glyph>
<glyph name="eng" format="2">
  <advance width="574"/>
  <unicode hex="014B"/>
  <outline>
    <component base="n"/>
    <contour>
      <point x="444" y="19" type="line"/>
      <point x="426" y="-63" type="line" smooth="yes"/>
      <point x="417" y="-102"/>
      <point x="385" y="-131"/>
      <point x="345" y="-131" type="curve" smooth="yes"/>
      <point x="319" y="-131"/>
      <point x="288" y="-118"/>
      <point x="274" y="-94" type="curve"/>
      <point x="213" y="-144" type="line"/>
      <point x="239" y="-181"/>
      <point x="281" y="-200"/>
      <point x="335" y="-200" type="curve" smooth="yes"/>
      <point x="424" y="-200"/>
      <point x="497" y="-147"/>
      <point x="515" y="-63" type="curve" smooth="yes"/>
      <point x="533" y="19" type="line"/>
    </contour>
  </outline>
</glyph>
<glyph name="OE" format="2">
  <advance width="1004"/>
  <unicode hex="0152"/>
  <anchor x="557" y="-59" name="bottom"/>
  <anchor x="727" y="800" name="top"/>
  <outline>
    <contour>
      <point x="122" y="250" type="curve" smooth="yes"/>
      <point x="122" y="96"/>
      <point x="202" y="-12"/>
      <point x="372" y="-12" type="curve" smooth="yes"/>
      <point x="462" y="-12"/>
      <point x="538" y="-11"/>
      <point x="603" y="39" type="curve"/>
      <point x="737" y="715" type="line"/>
      <point x="696" y="727"/>
      <point x="629" y="736"/>
      <point x="550" y="736" type="curve" smooth="yes"/>
      <point x="280" y="736"/>
      <point x="122" y="496"/>
    </contour>
    <contour>
      <point x="225" y="254" type="curve" smooth="yes"/>
      <point x="225" y="437"/>
      <point x="316" y="654"/>
      <point x="532" y="654" type="curve" smooth="yes"/>
      <point x="610" y="654"/>
      <point x="662" y="642"/>
      <point x="692" y="628" type="curve"/>
      <point x="578" y="116" type="line"/>
      <point x="530" y="81"/>
      <point x="470" y="70"/>
      <point x="393" y="70" type="curve" smooth="yes"/>
      <point x="272" y="70"/>
      <point x="225" y="148"/>
    </contour>
    <contour>
      <point x="935" y="1" type="line"/>
      <point x="955" y="88" type="line"/>
      <point x="645" y="88" type="line"/>
      <point x="700" y="327" type="line"/>
      <point x="990" y="327" type="line"/>
      <point x="1010" y="414" type="line"/>
      <point x="720" y="414" type="line"/>
      <point x="772" y="636" type="line"/>
      <point x="1077" y="636" type="line"/>
      <point x="1097" y="723" type="line"/>
      <point x="691" y="723" type="line"/>
      <point x="524" y="1" type="line"/>
    </contour>
  </outline>
</glyph>
<glyph name="Tbar" format="2">
  <advance width="622"/>
  <unicode hex="0166"/>
  <outline>
    <component base="T"/>
    <contour>
      <point x="222" y="363" type="line"/>
      <point x="207" y="299" type="line"/>
      <point x="547" y="299" type="line"/>
      <point x="562" y="363" type="line"/>
    </contour>
  </outline>
</glyph>
<glyph name="florin" format="2">
  <advance width="503"/>
  <unicode hex="0192"/>
  <outline>
    <contour>
      <point x="98" y="-53" type="line" smooth="yes"/>
      <point x="85" y="-112"/>
      <point x="59" y="-140"/>
      <point x="3" y="-140" type="curve" smooth="yes"/>
      <point x="-15" y="-140"/>
      <point x="-34" y="-137"/>
      <point x="-51" y="-128" type="curve"/>
      <point x="-68" y="-202" type="line"/>
      <point x="-47" y="-209"/>
      <point x="-22" y="-212"/>
      <point x="5" y="-212" type="curve" smooth="yes"/>
      <point x="108" y="-212"/>
      <point x="160" y="-169"/>
      <point x="187" y="-55" type="curve" smooth="yes"/>
      <point x="332" y="573" type="line" smooth="yes"/>
      <point x="346" y="632"/>
      <point x="371" y="660"/>
      <point x="427" y="660" type="curve" smooth="yes"/>
      <point x="445" y="660"/>
      <point x="464" y="657"/>
      <point x="481" y="648" type="curve"/>
      <point x="498" y="722" type="line"/>
      <point x="477" y="729"/>
      <point x="452" y="732"/>
      <point x="425" y="732" type="curve" smooth="yes"/>
      <point x="322" y="732"/>
      <point x="269" y="688"/>
      <point x="243" y="575" type="curve" smooth="yes"/>
    </contour>
    <contour>
      <point x="130" y="500" type="line"/>
      <point x="115" y="435" type="line"/>
      <point x="425" y="435" type="line"/>
      <point x="440" y="500" type="line"/>
    </contour>
  </outline>
</glyph>
<glyph name="uni01C1" format="2">
  <advance width="688"/>
  <unicode hex="01C1"/>
  <outline>
    <contour>
      <point x="138" y="-258" type="line"/>
      <point x="382" y="796" type="line"/>
      <point x="331" y="796" type="line"/>
      <point x="87" y="-258" type="line"/>
    </contour>
    <contour>
      <point x="482" y="-258" type="line"/>
      <point x="726" y="796" type="line"/>
      <point x="675" y="796" type="line"/>
      <point x="431" y="-258" type="line"/>
    </contour>
  </outline>
</glyph>
<glyph name="uni0253" format="2">
  <advance width="590"/>
  <unicode hex="0253"/>
  <outline>
    <component base="uni0250"/>
    <contour>
      <point x="285" y="555" type="line" smooth="yes"/>
      <point x="303" y="636"/>
      <point x="347" y="666"/>
      <point x="419" y="666" type="curve" smooth="yes"/>
      <point x="460" y="666"/>
      <point x="490" y="656"/>
      <point x="510" y="635" type="curve"/>
      <point x="576" y="687" type="line"/>
      <point x="550" y="713"/>
      <point x="504" y="735"/>
      <point x="432" y="735" type="curve" smooth="yes"/>
      <point x="337" y="735"/>
      <point x="228" y="704"/>
      <point x="193" y="545" type="curve" smooth="yes"/>
      <point x="183" y="500" type="line"/>
      <point x="273" y="500" type="line"/>
    </contour>
  </outline>
</glyph>
<glyph name="uni0257" format="2">
  <advance width="591"/>
  <unicode hex="0257"/>
  <outline>
    <contour>
      <point x="98" y="176" type="curve" smooth="yes"/>
      <point x="98" y="65"/>
      <point x="159" y="-12"/>
      <point x="279" y="-12" type="curve" smooth="yes"/>
      <point x="339" y="-12"/>
      <point x="411" y="29"/>
      <point x="444" y="57" type="curve"/>
      <point x="431" y="0" type="line"/>
      <point x="521" y="0" type="line"/>
      <point x="636" y="500" type="line"/>
      <point x="546" y="500" type="line"/>
      <point x="531" y="435" type="line"/>
      <point x="508" y="479"/>
      <point x="469" y="512"/>
      <point x="394" y="512" type="curve" smooth="yes"/>
      <point x="219" y="512"/>
      <point x="98" y="332"/>
    </contour>
    <contour>
      <point x="192" y="188" type="curve" smooth="yes"/>
      <point x="192" y="291"/>
      <point x="262" y="448"/>
      <point x="378" y="448" type="curve" smooth="yes"/>
      <point x="455" y="448"/>
      <point x="497" y="405"/>
      <point x="497" y="315" type="curve" smooth="yes"/>
      <point x="497" y="204"/>
      <point x="434" y="57"/>
      <point x="307" y="57" type="curve" smooth="yes"/>
      <point x="226" y="57"/>
      <point x="192" y="116"/>
    </contour>
    <contour>
      <point x="546" y="500" type="line"/>
      <point x="636" y="500" type="line"/>
      <point x="659" y="598" type="line" smooth="yes"/>
      <point x="669" y="642"/>
      <point x="706" y="667"/>
      <point x="750" y="667" type="curve" smooth="yes"/>
      <point x="775" y="667"/>
      <point x="792" y="659"/>
      <point x="799" y="642" type="curve"/>
      <point x="865" y="697" type="line"/>
      <point x="844" y="723"/>
      <point x="807" y="736"/>
      <point x="758" y="736" type="curve" smooth="yes"/>
      <point x="660" y="736"/>
      <point x="589" y="683"/>
      <point x="569" y="598" type="curve" smooth="yes"/>
    </contour>
  </outline>
</glyph>
<glyph name="uni025A" format="2">
  <advance width="766"/>
  <unicode hex="025A"/>
  <outline>
    <contour>
      <point x="93" y="170" type="line"/>
      <point x="93" y="66"/>
      <point x="155" y="-12"/>
      <point x="278" y="-12" type="curve" smooth="yes"/>
      <point x="463" y="-12"/>
      <point x="573" y="166"/>
      <point x="573" y="328" type="curve" smooth="yes"/>
      <point x="573" y="442"/>
      <point x="520" y="512"/>
      <point x="392" y="512" type="curve" smooth="yes"/>
      <point x="266" y="512"/>
      <point x="174" y="443"/>
      <point x="129" y="338" type="curve"/>
      <point x="226" y="338" type="line"/>
      <point x="246" y="400"/>
      <point x="299" y="447"/>
      <point x="370" y="447" type="curve" smooth="yes"/>
      <point x="443" y="447"/>
      <point x="479" y="397"/>
      <point x="479" y="326" type="curve" smooth="yes"/>
      <point x="479" y="211"/>
      <point x="423" y="53"/>
      <point x="287" y="53" type="curve" smooth="yes"/>
      <point x="209" y="53"/>
      <point x="187" y="103"/>
      <point x="187" y="154" type="curve"/>
    </contour>
    <contour>
      <point x="187" y="154" type="line"/>
      <point x="672" y="368" type="line"/>
      <point x="666" y="347" type="line" smooth="yes"/>
      <point x="658" y="320"/>
      <point x="653" y="296"/>
      <point x="653" y="279" type="curve" smooth="yes"/>
      <point x="653" y="239"/>
      <point x="680" y="213"/>
      <point x="732" y="213" type="curve" smooth="yes"/>
      <point x="782" y="213"/>
      <point x="825" y="257"/>
      <point x="839" y="319" type="curve"/>
      <point x="794" y="319" type="line"/>
      <point x="786" y="285"/>
      <point x="769" y="253"/>
      <point x="730" y="253" type="curve" smooth="yes"/>
      <point x="708" y="253"/>
      <point x="697" y="263"/>
      <point x="697" y="283" type="curve" smooth="yes"/>
      <point x="697" y="289"/>
      <point x="698" y="296"/>
      <point x="700" y="303" type="curve" smooth="yes"/>
      <point x="741" y="460" type="line"/>
      <point x="93" y="170" type="line"/>
    </contour>
  </outline>
</glyph>
<glyph name="uni025F" format="2">
  <advance width="317"/>
  <unicode hex="025F"/>
  <outline>
    <contour>
      <point x="98" y="-53" type="line" smooth="yes"/>
      <point x="84" y="-112"/>
      <point x="59" y="-140"/>
      <point x="3" y="-140" type="curve" smooth="yes"/>
      <point x="-15" y="-140"/>
      <point x="-34" y="-137"/>
      <point x="-51" y="-128" type="curve"/>
      <point x="-68" y="-202" type="line"/>
      <point x="-47" y="-209"/>
      <point x="-22" y="-212"/>
      <point x="5" y="-212" type="curve" smooth="yes"/>
      <point x="108" y="-212"/>
      <point x="161" y="-169"/>
      <point x="187" y="-55" type="curve" smooth="yes"/>
      <point x="315" y="500" type="line"/>
      <point x="226" y="500" type="line"/>
    </contour>
    <contour>
      <point x="84" y="278" type="line"/>
      <point x="69" y="213" type="line"/>
      <point x="339" y="213" type="line"/>
      <point x="354" y="278" type="line"/>
    </contour>
  </outline>
</glyph>
<glyph name="uni0260" format="2">
  <advance width="621"/>
  <unicode hex="0260"/>
  <outline>
    <component base="g"/>
    <contour>
      <point x="631" y="444" type="line"/>
      <point x="646" y="508" type="line" smooth="yes"/>
      <point x="660" y="566"/>
      <point x="676" y="574"/>
      <point x="708" y="574" type="curve" smooth="yes"/>
      <point x="731" y="574"/>
      <point x="746" y="570"/>
      <point x="759" y="561" type="curve"/>
      <point x="773" y="623" type="line"/>
      <point x="760" y="633"/>
      <point x="741" y="638"/>
      <point x="712" y="638" type="curve" smooth="yes"/>
      <point x="623" y="638"/>
      <point x="574" y="590"/>
      <point x="554" y="500" type="curve" smooth="yes"/>
      <point x="542" y="444" type="line"/>
    </contour>
  </outline>
</glyph>
<glyph name="uni0264" format="2">
  <advance width="579"/>
  <unicode hex="0264"/>
  <outline>
    <contour>
      <point x="198" y="56" type="curve" smooth="yes"/>
      <point x="198" y="15"/>
      <point x="232" y="-14"/>
      <point x="285" y="-14" type="curve" smooth="yes"/>
      <point x="354" y="-14"/>
      <point x="425" y="35"/>
      <point x="425" y="115" type="curve" smooth="yes"/>
      <point x="425" y="143"/>
      <point x="416" y="179"/>
      <point x="405" y="206" type="curve" smooth="yes"/>
      <point x="300" y="456" type="line" smooth="yes"/>
      <point x="285" y="493"/>
      <point x="254" y="514"/>
      <point x="222" y="514" type="curve" smooth="yes"/>
      <point x="177" y="514"/>
      <point x="119" y="473"/>
      <point x="119" y="438" type="curve" smooth="yes"/>
      <point x="119" y="432"/>
      <point x="121" y="430"/>
      <point x="126" y="430" type="curve" smooth="yes"/>
      <point x="132" y="430"/>
      <point x="139" y="434"/>
      <point x="144" y="437" type="curve"/>
      <point x="155" y="444"/>
      <point x="165" y="449"/>
      <point x="176" y="449" type="curve" smooth="yes"/>
      <point x="196" y="449"/>
      <point x="222" y="436"/>
      <point x="234" y="405" type="curve" smooth="yes"/>
      <point x="332" y="157" type="line" smooth="yes"/>
      <point x="344" y="126"/>
      <point x="344" y="100"/>
      <point x="344" y="87" type="curve" smooth="yes"/>
      <point x="344" y="63"/>
      <point x="327" y="51"/>
      <point x="305" y="51" type="curve" smooth="yes"/>
      <point x="282" y="51"/>
      <point x="276" y="66"/>
      <point x="276" y="83" type="curve" smooth="yes"/>
      <point x="276" y="96"/>
      <point x="280" y="126"/>
      <point x="303" y="152" type="curve" smooth="yes"/>
      <point x="512" y="394" type="line" smooth="yes"/>
      <point x="546" y="433"/>
      <point x="588" y="449"/>
      <point x="611" y="449" type="curve" smooth="yes"/>
      <point x="624" y="449"/>
      <point x="632" y="443"/>
      <point x="639" y="437" type="curve"/>
      <point x="644" y="433"/>
      <point x="648" y="430"/>
      <point x="653" y="430" type="curve" smooth="yes"/>
      <point x="660" y="430"/>
      <point x="668" y="436"/>
      <point x="668" y="452" type="curve" smooth="yes"/>
      <point x="668" y="479"/>
      <point x="646" y="514"/>
      <point x="610" y="514" type="curve" smooth="yes"/>
      <point x="579" y="514"/>
      <point x="519" y="487"/>
      <point x="469" y="430" type="curve" smooth="yes"/>
      <point x="263" y="196" type="line" smooth="yes"/>
      <point x="217" y="144"/>
      <point x="198" y="86"/>
    </contour>
  </outline>
</glyph>
<glyph name="uni0267" format="2">
  <advance width="574"/>
  <unicode hex="0267"/>
  <outline>
    <component base="uni0266"/>
    <contour>
      <point x="211" y="-144" type="line"/>
      <point x="236" y="-177"/>
      <point x="286" y="-200"/>
      <point x="340" y="-200" type="curve" smooth="yes"/>
      <point x="424" y="-200"/>
      <point x="496" y="-145"/>
      <point x="515" y="-62" type="curve" smooth="yes"/>
      <point x="529" y="0" type="line"/>
      <point x="439" y="0" type="line"/>
      <point x="424" y="-63" type="line" smooth="yes"/>
      <point x="414" y="-105"/>
      <point x="380" y="-131"/>
      <point x="344" y="-131" type="curve" smooth="yes"/>
      <point x="317" y="-131"/>
      <point x="288" y="-118"/>
      <point x="272" y="-95" type="curve"/>
    </contour>
  </outline>
</glyph>
<glyph name="uni026A" format="2">
  <advance width="342"/>
  <unicode hex="026A"/>
  <outline>
    <component base="dotlessi" xOffset="56"/>
    <contour>
      <point x="381" y="420" type="line"/>
      <point x="399" y="500" type="line"/>
      <point x="172" y="500" type="line"/>
      <point x="154" y="420" type="line"/>
    </contour>
    <contour>
      <point x="74" y="74" type="line"/>
      <point x="57" y="0" type="line"/>
      <point x="284" y="0" type="line"/>
      <point x="301" y="74" type="line"/>
    </contour>
  </outline>
  <guideline angle="90" x="54" y="0"/>
</glyph>
<glyph name="uni026B" format="2">
  <advance width="276"/>
  <unicode hex="026B"/>
  <outline>
    <component base="l"/>
    <contour>
      <point x="201" y="433" type="line"/>
      <point x="193" y="438" type="line" smooth="yes"/>
      <point x="179" y="447"/>
      <point x="164" y="451"/>
      <point x="149" y="451" type="curve" smooth="yes"/>
      <point x="103" y="451"/>
      <point x="64" y="411"/>
      <point x="45" y="348" type="curve"/>
      <point x="98" y="348" type="line"/>
      <point x="107" y="379"/>
      <point x="122" y="394"/>
      <point x="142" y="394" type="curve" smooth="yes"/>
      <point x="154" y="394"/>
      <point x="164" y="388"/>
      <point x="193" y="370" type="curve" smooth="yes"/>
      <point x="201" y="365" type="line"/>
    </contour>
    <contour>
      <point x="256" y="341" type="line"/>
      <point x="264" y="336" type="line" smooth="yes"/>
      <point x="278" y="327"/>
      <point x="293" y="323"/>
      <point x="308" y="323" type="curve" smooth="yes"/>
      <point x="354" y="323"/>
      <point x="393" y="363"/>
      <point x="412" y="426" type="curve"/>
      <point x="359" y="426" type="line"/>
      <point x="350" y="395"/>
      <point x="335" y="380"/>
      <point x="315" y="380" type="curve" smooth="yes"/>
      <point x="303" y="380"/>
      <point x="293" y="386"/>
      <point x="264" y="404" type="curve" smooth="yes"/>
      <point x="256" y="409" type="line"/>
    </contour>
  </outline>
</glyph>
<glyph name="uni0270" format="2">
  <advance width="936"/>
  <unicode hex="0270"/>
  <outline>
    <component base="uni026F"/>
    <contour>
      <point x="802" y="-200" type="line"/>
      <point x="963" y="500" type="line"/>
      <point x="873" y="500" type="line"/>
      <point x="712" y="-200" type="line"/>
    </contour>
  </outline>
</glyph>
<glyph name="uni0272" format="2">
  <advance width="619"/>
  <unicode hex="0272"/>
  <outline>
    <component base="n"/>
    <contour>
      <point x="93" y="0" type="line"/>
      <point x="79" y="-62" type="line" smooth="yes"/>
      <point x="67" y="-115"/>
      <point x="42" y="-135"/>
      <point x="-17" y="-135" type="curve" smooth="yes"/>
      <point x="-43" y="-135" type="line"/>
      <point x="-58" y="-200" type="line"/>
      <point x="-31" y="-200" type="line" smooth="yes"/>
      <point x="83" y="-200"/>
      <point x="141" y="-186"/>
      <point x="169" y="-62" type="curve" smooth="yes"/>
      <point x="183" y="0" type="line"/>
    </contour>
  </outline>
</glyph>
<glyph name="uni0273" format="2">
  <advance width="620"/>
  <unicode hex="0273"/>
  <outline>
    <component base="n"/>
    <contour>
      <point x="439" y="0" type="line"/>
      <point x="424" y="-67"/>
      <point x="421" y="-85"/>
      <point x="421" y="-103" type="curve" smooth="yes"/>
      <point x="421" y="-157"/>
      <point x="450" y="-197"/>
      <point x="515" y="-197" type="curve" smooth="yes"/>
      <point x="603" y="-197" type="line"/>
      <point x="620" y="-123" type="line"/>
      <point x="553" y="-123" type="line" smooth="yes"/>
      <point x="525" y="-123"/>
      <point x="511" y="-110"/>
      <point x="511" y="-87" type="curve" smooth="yes"/>
      <point x="511" y="-78"/>
      <point x="513" y="-69"/>
      <point x="529" y="0" type="curve"/>
    </contour>
  </outline>
</glyph>
<glyph name="uni0274" format="2">
  <advance width="602"/>
  <unicode hex="0274"/>
  <outline>
    <contour>
      <point x="514" y="0" type="line"/>
      <point x="629" y="500" type="line"/>
      <point x="551" y="500" type="line"/>
      <point x="455" y="80" type="line"/>
      <point x="465" y="80" type="line"/>
      <point x="318" y="500" type="line"/>
      <point x="208" y="500" type="line"/>
      <point x="93" y="0" type="line"/>
      <point x="172" y="0" type="line"/>
      <point x="269" y="420" type="line"/>
      <point x="260" y="420" type="line"/>
      <point x="403" y="0" type="line"/>
    </contour>
  </outline>
</glyph>
<glyph name="uni0276" format="2">
  <advance width="806"/>
  <unicode hex="0276"/>
  <outline>
    <contour>
      <point x="413" y="0" type="line"/>
      <point x="528" y="500" type="line"/>
      <point x="833" y="500" type="line"/>
      <point x="817" y="426" type="line"/>
      <point x="590" y="426" type="line"/>
      <point x="558" y="293" type="line"/>
      <point x="770" y="293" type="line"/>
      <point x="754" y="219" type="line"/>
      <point x="542" y="219" type="line"/>
      <point x="508" y="74" type="line"/>
      <point x="735" y="74" type="line"/>
      <point x="718" y="0" type="line"/>
    </contour>
    <contour>
      <point x="112" y="184" type="curve" smooth="yes"/>
      <point x="112" y="380"/>
      <point x="236" y="510"/>
      <point x="422" y="510" type="curve" smooth="yes"/>
      <point x="450" y="510"/>
      <point x="476" y="507"/>
      <point x="500" y="500" type="curve"/>
      <point x="559" y="500" type="line"/>
      <point x="559" y="408" type="line"/>
      <point x="507" y="408" type="line"/>
      <point x="476" y="426"/>
      <point x="443" y="436"/>
      <point x="402" y="436" type="curve" smooth="yes"/>
      <point x="271" y="436"/>
      <point x="191" y="333"/>
      <point x="191" y="204" type="curve" smooth="yes"/>
      <point x="191" y="110"/>
      <point x="234" y="64"/>
      <point x="322" y="64" type="curve" smooth="yes"/>
      <point x="365" y="64"/>
      <point x="403" y="75"/>
      <point x="435" y="96" type="curve"/>
      <point x="479" y="96" type="line"/>
      <point x="469" y="0" type="line"/>
      <point x="376" y="0" type="line"/>
      <point x="351" y="-6"/>
      <point x="326" y="-10"/>
      <point x="300" y="-10" type="curve" smooth="yes"/>
      <point x="184" y="-10"/>
      <point x="112" y="67"/>
    </contour>
  </outline>
</glyph>
<glyph name="uni027B" format="2">
  <advance width="417"/>
  <unicode hex="027B"/>
  <outline>
    <component base="uni0279"/>
    <contour>
      <point x="239" y="0" type="line"/>
      <point x="224" y="-67"/>
      <point x="221" y="-85"/>
      <point x="221" y="-103" type="curve" smooth="yes"/>
      <point x="221" y="-157"/>
      <point x="250" y="-197"/>
      <point x="315" y="-197" type="curve" smooth="yes"/>
      <point x="403" y="-197" type="line"/>
      <point x="420" y="-123" type="line"/>
      <point x="353" y="-123" type="line" smooth="yes"/>
      <point x="325" y="-123"/>
      <point x="311" y="-110"/>
      <point x="311" y="-87" type="curve" smooth="yes"/>
      <point x="311" y="-78"/>
      <point x="313" y="-69"/>
      <point x="329" y="0" type="curve"/>
    </contour>
  </outline>
</glyph>
<glyph name="uni027D" format="2">
  <advance width="397"/>
  <unicode hex="027D"/>
  <outline>
    <component base="r"/>
    <contour>
      <point x="93" y="0" type="line"/>
      <point x="78" y="-67"/>
      <point x="75" y="-85"/>
      <point x="75" y="-103" type="curve" smooth="yes"/>
      <point x="75" y="-157"/>
      <point x="104" y="-197"/>
      <point x="169" y="-197" type="curve" smooth="yes"/>
      <point x="257" y="-197" type="line"/>
      <point x="274" y="-123" type="line"/>
      <point x="207" y="-123" type="line" smooth="yes"/>
      <point x="179" y="-123"/>
      <point x="165" y="-110"/>
      <point x="165" y="-87" type="curve" smooth="yes"/>
      <point x="165" y="-78"/>
      <point x="167" y="-69"/>
      <point x="183" y="0" type="curve"/>
    </contour>
  </outline>
</glyph>
<glyph name="uni0280" format="2">
  <advance width="598"/>
  <unicode hex="0280"/>
  <outline>
    <contour>
      <point x="247" y="277" type="line"/>
      <point x="368" y="277" type="line" smooth="yes"/>
      <point x="434" y="277"/>
      <point x="474" y="303"/>
      <point x="486" y="354" type="curve" smooth="yes"/>
      <point x="497" y="402"/>
      <point x="468" y="430"/>
      <point x="409" y="430" type="curve" smooth="yes"/>
      <point x="282" y="430" type="line"/>
    </contour>
    <contour>
      <point x="93" y="0" type="line"/>
      <point x="208" y="500" type="line"/>
      <point x="444" y="500" type="line" smooth="yes"/>
      <point x="546" y="500"/>
      <point x="602" y="445"/>
      <point x="582" y="361" type="curve" smooth="yes"/>
      <point x="567" y="296"/>
      <point x="529" y="254"/>
      <point x="457" y="234" type="curve"/>
      <point x="458" y="238" type="line"/>
      <point x="506" y="223"/>
      <point x="526" y="203"/>
      <point x="521" y="127" type="curve" smooth="yes"/>
      <point x="520" y="112" type="line" smooth="yes"/>
      <point x="516" y="47"/>
      <point x="514" y="30"/>
      <point x="519" y="0" type="curve"/>
      <point x="420" y="0" type="line"/>
      <point x="419" y="32"/>
      <point x="418" y="53"/>
      <point x="428" y="114" type="curve" smooth="yes"/>
      <point x="441" y="198"/>
      <point x="427" y="210"/>
      <point x="362" y="210" type="curve" smooth="yes"/>
      <point x="231" y="210" type="line"/>
      <point x="183" y="0" type="line"/>
    </contour>
  </outline>
</glyph>
<glyph name="uni0282" format="2">
  <advance width="503"/>
  <unicode hex="0282"/>
  <outline>
    <component base="s"/>
    <contour>
      <point x="94" y="144" type="line"/>
      <point x="40" y="-90" type="line" smooth="yes"/>
      <point x="38" y="-99"/>
      <point x="37" y="-107"/>
      <point x="37" y="-115" type="curve" smooth="yes"/>
      <point x="37" y="-166"/>
      <point x="78" y="-200"/>
      <point x="147" y="-200" type="curve" smooth="yes"/>
      <point x="246" y="-200"/>
      <point x="291" y="-176"/>
      <point x="311" y="-88" type="curve"/>
      <point x="228" y="-88" type="line"/>
      <point x="219" y="-128"/>
      <point x="181" y="-147"/>
      <point x="144" y="-147" type="curve" smooth="yes"/>
      <point x="104" y="-147"/>
      <point x="79" y="-125"/>
      <point x="79" y="-96" type="curve" smooth="yes"/>
      <point x="79" y="-92"/>
      <point x="79" y="-87"/>
      <point x="80" y="-83" type="curve" smooth="yes"/>
      <point x="132" y="144" type="line"/>
    </contour>
  </outline>
</glyph>
<glyph name="uni0289" format="2">
  <advance width="627"/>
  <unicode hex="0289"/>
  <outline>
    <component base="u"/>
    <contour>
      <point x="628" y="217" type="line"/>
      <point x="644" y="286" type="line"/>
      <point x="109" y="286" type="line"/>
      <point x="93" y="217" type="line"/>
    </contour>
  </outline>
</glyph>
<glyph name="uni028B" format="2">
  <advance width="580"/>
  <unicode hex="028B"/>
  <outline>
    <contour>
      <point x="599" y="353" type="curve" smooth="yes"/>
      <point x="599" y="423"/>
      <point x="583" y="486"/>
      <point x="557" y="514" type="curve"/>
      <point x="464" y="456" type="line"/>
      <point x="487" y="404"/>
      <point x="498" y="351"/>
      <point x="498" y="296" type="curve" smooth="yes"/>
      <point x="498" y="177"/>
      <point x="447" y="52"/>
      <point x="313" y="52" type="curve" smooth="yes"/>
      <point x="246" y="52"/>
      <point x="196" y="83"/>
      <point x="196" y="139" type="curve" smooth="yes"/>
      <point x="196" y="146"/>
      <point x="197" y="164"/>
      <point x="199" y="171" type="curve"/>
      <point x="276" y="500" type="line"/>
      <point x="186" y="500" type="line"/>
      <point x="110" y="173" type="line" smooth="yes"/>
      <point x="105" y="153"/>
      <point x="102" y="133"/>
      <point x="102" y="115" type="curve" smooth="yes"/>
      <point x="102" y="36"/>
      <point x="160" y="-12"/>
      <point x="269" y="-12" type="curve" smooth="yes"/>
      <point x="475" y="-12"/>
      <point x="599" y="155"/>
    </contour>
  </outline>
</glyph>
<glyph name="uni0292" format="2">
  <advance width="511"/>
  <unicode hex="0292"/>
  <anchor x="354" y="580" name="top"/>
  <outline>
    <contour>
      <point x="177" y="187" type="line"/>
      <point x="234" y="187" type="line" smooth="yes"/>
      <point x="311" y="187"/>
      <point x="385" y="169"/>
      <point x="385" y="67" type="curve" smooth="yes"/>
      <point x="385" y="-25"/>
      <point x="324" y="-135"/>
      <point x="215" y="-135" type="curve" smooth="yes"/>
      <point x="135" y="-135"/>
      <point x="99" y="-110"/>
      <point x="99" y="-60" type="curve" smooth="yes"/>
      <point x="99" y="-51"/>
      <point x="100" y="-41"/>
      <point x="102" y="-31" type="curve"/>
      <point x="15" y="-31" type="line"/>
      <point x="11" y="-48"/>
      <point x="9" y="-63"/>
      <point x="9" y="-77" type="curve" smooth="yes"/>
      <point x="9" y="-165"/>
      <point x="81" y="-200"/>
      <point x="193" y="-200" type="curve" smooth="yes"/>
      <point x="353" y="-200"/>
      <point x="474" y="-65"/>
      <point x="474" y="82" type="curve" smooth="yes"/>
      <point x="474" y="189"/>
      <point x="409" y="242"/>
      <point x="316" y="242" type="curve"/>
      <point x="527" y="419" type="line"/>
      <point x="546" y="500" type="line"/>
      <point x="163" y="500" type="line"/>
      <point x="147" y="431" type="line"/>
      <point x="435" y="431" type="line"/>
      <point x="186" y="225" type="line"/>
    </contour>
  </outline>
</glyph>
<glyph name="uni029B" format="2">
  <advance width="605"/>
  <unicode hex="029B"/>
  <outline>
    <component base="uni0262"/>
    <contour>
      <point x="594" y="367" type="line"/>
      <point x="609" y="431" type="line" smooth="yes"/>
      <point x="623" y="489"/>
      <point x="639" y="497"/>
      <point x="671" y="497" type="curve" smooth="yes"/>
      <point x="694" y="497"/>
      <point x="709" y="493"/>
      <point x="722" y="484" type="curve"/>
      <point x="736" y="546" type="line"/>
      <point x="723" y="556"/>
      <point x="704" y="561"/>
      <point x="675" y="561" type="curve" smooth="yes"/>
      <point x="586" y="561"/>
      <point x="537" y="513"/>
      <point x="517" y="423" type="curve" smooth="yes"/>
      <point x="505" y="367" type="line"/>
    </contour>
  </outline>
</glyph>
<glyph name="uni02A0" format="2">
  <advance width="630"/>
  <unicode hex="02A0"/>
  <outline>
    <component base="q"/>
    <contour>
      <point x="643" y="444" type="line"/>
      <point x="658" y="508" type="line" smooth="yes"/>
      <point x="672" y="566"/>
      <point x="688" y="574"/>
      <point x="720" y="574" type="curve" smooth="yes"/>
      <point x="743" y="574"/>
      <point x="758" y="570"/>
      <point x="771" y="561" type="curve"/>
      <point x="785" y="623" type="line"/>
      <point x="772" y="633"/>
      <point x="753" y="638"/>
      <point x="724" y="638" type="curve" smooth="yes"/>
      <point x="635" y="638"/>
      <point x="586" y="590"/>
      <point x="566" y="500" type="curve" smooth="yes"/>
      <point x="554" y="444" type="line"/>
    </contour>
  </outline>
</glyph>
<glyph name="uni02A1" format="2">
  <advance width="489"/>
  <unicode hex="02A1"/>
  <outline>
    <component base="uni0294"/>
    <contour>
      <point x="428" y="217" type="line"/>
      <point x="444" y="286" type="line"/>
      <point x="109" y="286" type="line"/>
      <point x="93" y="217" type="line"/>
    </contour>
  </outline>
</glyph>
<glyph name="uni02B0" format="2">
  <advance width="479"/>
  <unicode hex="02B0"/>
  <outline>
    <contour>
      <point x="168" y="351" type="line"/>
      <point x="231" y="351" type="line"/>
      <point x="286" y="590" type="line" smooth="yes"/>
      <point x="295" y="628"/>
      <point x="351" y="665"/>
      <point x="400" y="665" type="curve" smooth="yes"/>
      <point x="441" y="665"/>
      <point x="462" y="640"/>
      <point x="462" y="601" type="curve" smooth="yes"/>
      <point x="462" y="592"/>
      <point x="461" y="582"/>
      <point x="458" y="571" type="curve"/>
      <point x="407" y="351" type="line"/>
      <point x="470" y="351" type="line"/>
      <point x="520" y="568" type="line" smooth="yes"/>
      <point x="525" y="590"/>
      <point x="528" y="609"/>
      <point x="528" y="626" type="curve" smooth="yes"/>
      <point x="528" y="684"/>
      <point x="496" y="710"/>
      <point x="428" y="710" type="curve" smooth="yes"/>
      <point x="372" y="710"/>
      <point x="331" y="692"/>
      <point x="302" y="657" type="curve"/>
      <point x="348" y="856" type="line"/>
      <point x="285" y="856" type="line"/>
    </contour>
  </outline>
</glyph>
<glyph name="circumflex" format="2">
  <advance width="289"/>
  <unicode hex="02C6"/>
  <outline>
    <contour>
      <point x="429" y="600" type="line"/>
      <point x="378" y="770" type="line"/>
      <point x="268" y="770" type="line"/>
      <point x="139" y="600" type="line"/>
      <point x="199" y="600" type="line"/>
      <point x="309" y="710" type="line"/>
      <point x="369" y="600" type="line"/>
    </contour>
  </outline>
</glyph>
<glyph name="caron" format="2">
  <advance width="289"/>
  <unicode hex="02C7"/>
  <outline>
    <contour>
      <point x="468" y="770" type="line"/>
      <point x="408" y="770" type="line"/>
      <point x="297" y="660" type="line"/>
      <point x="238" y="770" type="line"/>
      <point x="178" y="770" type="line"/>
      <point x="229" y="600" type="line"/>
      <point x="339" y="600" type="line"/>
    </contour>
  </outline>
</glyph>
<glyph name="uni02D1" format="2">
  <advance width="372"/>
  <unicode hex="02D1"/>
  <outline>
    <contour>
      <point x="376" y="500" type="line"/>
      <point x="225" y="500" type="line"/>
      <point x="236" y="329" type="line"/>
      <point x="288" y="329" type="line"/>
    </contour>
  </outline>
</glyph>
<glyph name="uni02DE" format="2">
  <advance width="180"/>
  <unicode hex="02DE"/>
  <outline>
    <contour>
      <point x="-20" y="317" type="line"/>
      <point x="75" y="360" type="line"/>
      <point x="69" y="339" type="line" smooth="yes"/>
      <point x="61" y="312"/>
      <point x="56" y="288"/>
      <point x="56" y="271" type="curve" smooth="yes"/>
      <point x="56" y="231"/>
      <point x="83" y="205"/>
      <point x="135" y="205" type="curve" smooth="yes"/>
      <point x="185" y="205"/>
      <point x="228" y="249"/>
      <point x="242" y="311" type="curve"/>
      <point x="197" y="311" type="line"/>
      <point x="189" y="277"/>
      <point x="172" y="245"/>
      <point x="133" y="245" type="curve" smooth="yes"/>
      <point x="111" y="245"/>
      <point x="100" y="255"/>
      <point x="100" y="275" type="curve" smooth="yes"/>
      <point x="100" y="281"/>
      <point x="101" y="288"/>
      <point x="103" y="295" type="curve" smooth="yes"/>
      <point x="144" y="452" type="line"/>
      <point x="-23" y="377" type="line"/>
    </contour>
  </outline>
</glyph>
<glyph name="uni02E5" format="2">
  <advance width="357"/>
  <unicode hex="02E5"/>
  <outline>
    <contour>
      <point x="290" y="0" type="line"/>
      <point x="457" y="722" type="line"/>
      <point x="188" y="722" type="line"/>
      <point x="174" y="661" type="line"/>
      <point x="375" y="661" type="line"/>
      <point x="223" y="0" type="line"/>
    </contour>
  </outline>
</glyph>
<glyph name="uni02E6" format="2">
  <advance width="357"/>
  <unicode hex="02E6"/>
  <outline>
    <contour>
      <point x="368" y="561" type="line"/>
      <point x="150" y="561" type="line"/>
      <point x="135" y="497" type="line"/>
      <point x="353" y="497" type="line"/>
    </contour>
    <contour>
      <point x="223" y="0" type="line"/>
      <point x="291" y="0" type="line"/>
      <point x="458" y="722" type="line"/>
      <point x="390" y="722" type="line"/>
    </contour>
  </outline>
</glyph>
<glyph name="gravecomb" format="2">
  <advance width="1"/>
  <unicode hex="0300"/>
  <anchor x="-94" y="600" name="_top"/>
  <outline>
    <contour>
      <point x="-67" y="600" type="line"/>
      <point x="-128" y="771" type="line"/>
      <point x="-229" y="771" type="line"/>
      <point x="-128" y="600" type="line"/>
    </contour>
  </outline>
</glyph>
<glyph name="acutecomb" format="2">
  <advance width="1"/>
  <unicode hex="0301"/>
  <anchor x="-192" y="600" name="_mkmktop"/>
  <anchor x="-186" y="600" name="_top"/>
  <outline>
    <contour>
      <point x="22" y="771" type="line"/>
      <point x="-79" y="771" type="line"/>
      <point x="-218" y="600" type="line"/>
      <point x="-157" y="600" type="line"/>
    </contour>
  </outline>
</glyph>
<glyph name="uni0302" format="2">
  <advance width="1"/>
  <unicode hex="0302"/>
  <anchor x="-158" y="600" name="_top"/>
  <outline>
    <contour>
      <point x="-12" y="600" type="line"/>
      <point x="-63" y="770" type="line"/>
      <point x="-173" y="770" type="line"/>
      <point x="-302" y="600" type="line"/>
      <point x="-242" y="600" type="line"/>
      <point x="-132" y="710" type="line"/>
      <point x="-72" y="600" type="line"/>
    </contour>
  </outline>
</glyph>
<glyph name="uni0307" format="2">
  <advance width="1"/>
  <unicode hex="0307"/>
  <anchor x="-153" y="600" name="_top"/>
  <anchor x="-123" y="740" name="mkmktop"/>
  <outline>
    <contour>
      <point x="-108" y="600" type="line"/>
      <point x="-85" y="700" type="line"/>
      <point x="-175" y="700" type="line"/>
      <point x="-198" y="600" type="line"/>
    </contour>
  </outline>
</glyph>
<glyph name="uni030F" format="2">
  <advance width="1"/>
  <unicode hex="030F"/>
  <anchor x="-109" y="600" name="_top"/>
  <outline>
    <contour>
      <point x="-158" y="600" type="line"/>
      <point x="-189" y="771" type="line"/>
      <point x="-279" y="771" type="line"/>
      <point x="-208" y="600" type="line"/>
    </contour>
    <contour>
      <point x="-18" y="600" type="line"/>
      <point x="-49" y="771" type="line"/>
      <point x="-139" y="771" type="line"/>
      <point x="-68" y="600" type="line"/>
    </contour>
  </outline>
</glyph>
<glyph name="uni0318" format="2">
  <unicode hex="0318"/>
  <outline>
    <contour>
      <point x="-122" y="-305" type="line"/>
      <point x="-61" y="-41" type="line"/>
      <point x="-117" y="-41" type="line"/>
      <point x="-141" y="-145" type="line"/>
      <point x="-244" y="-145" type="line"/>
      <point x="-257" y="-201" type="line"/>
      <point x="-154" y="-201" type="line"/>
      <point x="-178" y="-305" type="line"/>
    </contour>
  </outline>
</glyph>
<glyph name="uni031E" format="2">
  <unicode hex="031E"/>
  <outline>
    <contour>
      <point x="-80" y="-156" type="line"/>
      <point x="-67" y="-100" type="line"/>
      <point x="-331" y="-100" type="line"/>
      <point x="-344" y="-156" type="line"/>
    </contour>
    <contour>
      <point x="-237" y="-141" type="line"/>
      <point x="-264" y="-259" type="line"/>
      <point x="-208" y="-259" type="line"/>
      <point x="-181" y="-141" type="line"/>
    </contour>
  </outline>
</glyph>
<glyph name="cedillacomb" format="2">
  <unicode hex="0327"/>
  <anchor x="-281" y="0" name="_cedillaC"/>
  <outline>
    <contour>
      <point x="-298" y="10" type="line"/>
      <point x="-356" y="-99" type="line"/>
      <point x="-287" y="-99" type="line" smooth="yes"/>
      <point x="-253" y="-99"/>
      <point x="-232" y="-115"/>
      <point x="-232" y="-144" type="curve" smooth="yes"/>
      <point x="-232" y="-190"/>
      <point x="-283" y="-195"/>
      <point x="-318" y="-195" type="curve" smooth="yes"/>
      <point x="-350" y="-195"/>
      <point x="-383" y="-191"/>
      <point x="-417" y="-183" type="curve"/>
      <point x="-429" y="-233" type="line"/>
      <point x="-391" y="-239"/>
      <point x="-354" y="-242"/>
      <point x="-316" y="-242" type="curve" smooth="yes"/>
      <point x="-246" y="-242"/>
      <point x="-159" y="-212"/>
      <point x="-159" y="-133" type="curve" smooth="yes"/>
      <point x="-159" y="-76"/>
      <point x="-204" y="-49"/>
      <point x="-288" y="-49" type="curve"/>
      <point x="-255" y="10" type="line"/>
    </contour>
  </outline>
</glyph>
<glyph name="macronbelowcomb" format="2">
  <unicode hex="0331"/>
  <anchor x="-264" y="-50" name="_bottom"/>
  <outline>
    <contour>
      <point x="-101" y="-129" type="line"/>
      <point x="-87" y="-60" type="line"/>
      <point x="-427" y="-60" type="line"/>
      <point x="-442" y="-129" type="line"/>
    </contour>
  </outline>
</glyph>
<glyph name="uni033B" format="2">
  <unicode hex="033B"/>
  <outline>
    <contour>
      <point x="-454" y="-320" type="line"/>
      <point x="-274" y="-320" type="line"/>
      <point x="-274" y="-270" type="line"/>
      <point x="-454" y="-270" type="line"/>
    </contour>
    <contour>
      <point x="-420" y="-150" type="line"/>
      <point x="-240" y="-150" type="line"/>
      <point x="-240" y="-100" type="line"/>
      <point x="-420" y="-100" type="line"/>
    </contour>
    <contour>
      <point x="-434" y="-100" type="line"/>
      <point x="-485" y="-320" type="line"/>
      <point x="-436" y="-320" type="line"/>
      <point x="-385" y="-100" type="line"/>
    </contour>
    <contour>
      <point x="-254" y="-100" type="line"/>
      <point x="-305" y="-320" type="line"/>
      <point x="-256" y="-320" type="line"/>
      <point x="-205" y="-100" type="line"/>
    </contour>
  </outline>
</glyph>
<glyph name="tonos" format="2">
  <advance width="161"/>
  <unicode hex="0384"/>
  <anchor x="307" y="722" name="_tonosUP"/>
  <anchor x="134" y="512" name="_top"/>
  <outline>
    <contour>
      <point x="307" y="722" type="line"/>
      <point x="207" y="722" type="line"/>
      <point x="98" y="512" type="line"/>
      <point x="168" y="512" type="line"/>
    </contour>
  </outline>
</glyph>
<glyph name="Gamma" format="2">
  <advance width="500"/>
  <unicode hex="0393"/>
  <outline>
    <contour>
      <point x="627" y="635" type="line"/>
      <point x="647" y="722" type="line"/>
      <point x="227" y="722" type="line"/>
      <point x="60" y="0" type="line"/>
      <point x="161" y="0" type="line"/>
      <point x="308" y="635" type="line"/>
    </contour>
  </outline>
</glyph>
<glyph name="Zeta" format="2">
  <advance width="626"/>
  <unicode hex="0396"/>
  <outline>
    <contour>
      <point x="576" y="0" type="line"/>
      <point x="596" y="87" type="line"/>
      <point x="180" y="87" type="line"/>
      <point x="707" y="612" type="line"/>
      <point x="733" y="722" type="line"/>
      <point x="237" y="722" type="line"/>
      <point x="217" y="635" type="line"/>
      <point x="603" y="635" type="line"/>
      <point x="75" y="110" type="line"/>
      <point x="50" y="0" type="line"/>
    </contour>
  </outline>
</glyph>
<glyph name="Sigma" format="2">
  <advance width="626"/>
  <unicode hex="03A3"/>
  <outline>
    <contour>
      <point x="50" y="0" type="line"/>
      <point x="576" y="0" type="line"/>
      <point x="596" y="87" type="line"/>
      <point x="167" y="87" type="line"/>
      <point x="167" y="59" type="line"/>
      <point x="472" y="375" type="line"/>
      <point x="304" y="659" type="line"/>
      <point x="304" y="635" type="line"/>
      <point x="703" y="635" type="line"/>
      <point x="723" y="722" type="line"/>
      <point x="227" y="722" type="line"/>
      <point x="201" y="612" type="line"/>
      <point x="363" y="357" type="line"/>
      <point x="370" y="393" type="line"/>
      <point x="70" y="88" type="line"/>
    </contour>
  </outline>
</glyph>
<glyph name="gamma" format="2">
  <advance width="551"/>
  <unicode hex="03B3"/>
  <outline>
    <contour>
      <point x="270" y="-75" type="line"/>
      <point x="642" y="500" type="line"/>
      <point x="551" y="500" type="line"/>
      <point x="296" y="104" type="line"/>
      <point x="321" y="104" type="line"/>
      <point x="246" y="465" type="line" smooth="yes"/>
      <point x="240" y="494"/>
      <point x="205" y="512"/>
      <point x="166" y="512" type="curve" smooth="yes"/>
      <point x="153" y="512"/>
      <point x="140" y="510"/>
      <point x="122" y="507" type="curve"/>
      <point x="105" y="435" type="line"/>
      <point x="111" y="436"/>
      <point x="118" y="436"/>
      <point x="124" y="436" type="curve"/>
      <point x="147" y="434"/>
      <point x="162" y="426"/>
      <point x="166" y="407" type="curve" smooth="yes"/>
      <point x="266" y="-75" type="line"/>
    </contour>
    <contour>
      <point x="248" y="48" type="line"/>
      <point x="192" y="-200" type="line"/>
      <point x="283" y="-200" type="line"/>
      <point x="337" y="42" type="line"/>
    </contour>
  </outline>
</glyph>
<glyph name="zeta" format="2">
  <advance width="463"/>
  <unicode hex="03B6"/>
  <outline>
    <contour>
      <point x="230" y="665" type="line"/>
      <point x="465" y="665" type="line"/>
      <point x="467" y="679" type="line"/>
      <point x="323" y="600"/>
      <point x="74" y="411"/>
      <point x="74" y="159" type="curve" smooth="yes"/>
      <point x="74" y="70"/>
      <point x="128" y="-3"/>
      <point x="215" y="-3" type="curve" smooth="yes"/>
      <point x="323" y="-3" type="line" smooth="yes"/>
      <point x="346" y="-3"/>
      <point x="356" y="-9"/>
      <point x="356" y="-22" type="curve" smooth="yes"/>
      <point x="356" y="-39"/>
      <point x="341" y="-71"/>
      <point x="333" y="-87" type="curve" smooth="yes"/>
      <point x="276" y="-200" type="line"/>
      <point x="349" y="-200" type="line"/>
      <point x="422" y="-56" type="line" smooth="yes"/>
      <point x="430" y="-40"/>
      <point x="437" y="-21"/>
      <point x="437" y="-1" type="curve" smooth="yes"/>
      <point x="437" y="31"/>
      <point x="420" y="74"/>
      <point x="363" y="74" type="curve" smooth="yes"/>
      <point x="240" y="74" type="line" smooth="yes"/>
      <point x="195" y="74"/>
      <point x="171" y="124"/>
      <point x="171" y="177" type="curve" smooth="yes"/>
      <point x="171" y="390"/>
      <point x="420" y="584"/>
      <point x="582" y="679" type="curve"/>
      <point x="595" y="734" type="line"/>
      <point x="246" y="734" type="line"/>
    </contour>
  </outline>
</glyph>
<glyph name="eta" format="2">
  <advance width="608"/>
  <unicode hex="03B7"/>
  <anchor x="305" y="-60" name="bottom"/>
  <anchor x="423" y="580" name="top"/>
  <outline>
    <contour>
      <point x="93" y="0" type="line"/>
      <point x="183" y="0" type="line"/>
      <point x="258" y="323" type="line" smooth="yes"/>
      <point x="275" y="398"/>
      <point x="347" y="452"/>
      <point x="418" y="452" type="curve" smooth="yes"/>
      <point x="479" y="452"/>
      <point x="518" y="412"/>
      <point x="518" y="358" type="curve" smooth="yes"/>
      <point x="518" y="349"/>
      <point x="517" y="340"/>
      <point x="515" y="331" type="curve" smooth="yes"/>
      <point x="439" y="0" type="line"/>
      <point x="529" y="0" type="line"/>
      <point x="605" y="329" type="line" smooth="yes"/>
      <point x="610" y="351"/>
      <point x="612" y="371"/>
      <point x="612" y="387" type="curve" smooth="yes"/>
      <point x="612" y="472"/>
      <point x="559" y="512"/>
      <point x="458" y="512" type="curve" smooth="yes"/>
      <point x="388" y="512"/>
      <point x="325" y="478"/>
      <point x="284" y="436" type="curve"/>
      <point x="187" y="410" type="line"/>
    </contour>
    <contour>
      <point x="439" y="0" type="line"/>
      <point x="393" y="-200" type="line"/>
      <point x="483" y="-200" type="line"/>
      <point x="529" y="0" type="line"/>
    </contour>
    <contour>
      <point x="284" y="436" type="line"/>
      <point x="286" y="444"/>
      <point x="286" y="451"/>
      <point x="286" y="452" type="curve"/>
      <point x="286" y="491"/>
      <point x="261" y="512"/>
      <point x="209" y="512" type="curve" smooth="yes"/>
      <point x="192" y="512"/>
      <point x="170" y="510"/>
      <point x="151" y="504" type="curve"/>
      <point x="135" y="438" type="line"/>
      <point x="141" y="439"/>
      <point x="146" y="439"/>
      <point x="149" y="439" type="curve" smooth="yes"/>
      <point x="155" y="439" type="line" smooth="yes"/>
      <point x="173" y="439"/>
      <point x="187" y="431"/>
      <point x="187" y="410" type="curve"/>
    </contour>
  </outline>
</glyph>
<glyph name="theta" format="2">
  <advance width="592"/>
  <unicode hex="03B8"/>
  <outline>
    <contour>
      <point x="592" y="375" type="line" smooth="yes"/>
      <point x="605" y="434"/>
      <point x="622" y="515"/>
      <point x="622" y="575" type="curve" smooth="yes"/>
      <point x="622" y="659"/>
      <point x="589" y="734"/>
      <point x="461" y="734" type="curve" smooth="yes"/>
      <point x="279" y="734"/>
      <point x="224" y="585"/>
      <point x="188" y="435" type="curve" smooth="yes"/>
      <point x="174" y="375" type="line" smooth="yes"/>
      <point x="151" y="278"/>
      <point x="140" y="205"/>
      <point x="140" y="148" type="curve" smooth="yes"/>
      <point x="140" y="28"/>
      <point x="190" y="-12"/>
      <point x="292" y="-12" type="curve" smooth="yes"/>
      <point x="434" y="-12"/>
      <point x="512" y="63"/>
      <point x="578" y="316" type="curve"/>
    </contour>
    <contour>
      <point x="492" y="348" type="line" smooth="yes"/>
      <point x="440" y="123"/>
      <point x="393" y="57"/>
      <point x="307" y="57" type="curve" smooth="yes"/>
      <point x="255" y="57"/>
      <point x="230" y="82"/>
      <point x="230" y="154" type="curve" smooth="yes"/>
      <point x="230" y="199"/>
      <point x="240" y="261"/>
      <point x="260" y="348" type="curve" smooth="yes"/>
      <point x="273" y="403" type="line" smooth="yes"/>
      <point x="321" y="613"/>
      <point x="363" y="665"/>
      <point x="450" y="665" type="curve" smooth="yes"/>
      <point x="505" y="665"/>
      <point x="532" y="643"/>
      <point x="532" y="575" type="curve" smooth="yes"/>
      <point x="532" y="535"/>
      <point x="523" y="480"/>
      <point x="505" y="403" type="curve" smooth="yes"/>
    </contour>
    <contour>
      <point x="520" y="403" type="line"/>
      <point x="258" y="403" type="line"/>
      <point x="245" y="348" type="line"/>
      <point x="507" y="348" type="line"/>
    </contour>
  </outline>
</glyph>
<glyph name="iota" format="2">
  <advance width="276"/>
  <unicode hex="03B9"/>
  <anchor x="260" y="580" name="top"/>
  <outline>
    <contour>
      <point x="100" y="62" type="line" smooth="yes"/>
      <point x="99" y="58"/>
      <point x="98" y="52"/>
      <point x="98" y="46" type="curve" smooth="yes"/>
      <point x="98" y="16"/>
      <point x="122" y="0"/>
      <point x="155" y="0" type="curve" smooth="yes"/>
      <point x="252" y="0" type="line"/>
      <point x="268" y="69" type="line"/>
      <point x="260" y="67"/>
      <point x="240" y="64"/>
      <point x="224" y="64" type="curve" smooth="yes"/>
      <point x="208" y="64"/>
      <point x="196" y="67"/>
      <point x="196" y="82" type="curve" smooth="yes"/>
      <point x="196" y="87"/>
      <point x="198" y="98"/>
      <point x="199" y="101" type="curve"/>
      <point x="291" y="500" type="line"/>
      <point x="201" y="500" type="line"/>
    </contour>
  </outline>
</glyph>
<glyph name="xi" format="2">
  <advance width="496"/>
  <unicode hex="03BE"/>
  <outline>
    <contour>
      <point x="220" y="653" type="line"/>
      <point x="345" y="653" type="line"/>
      <point x="345" y="668" type="line"/>
      <point x="252" y="634"/>
      <point x="208" y="568"/>
      <point x="208" y="508" type="curve" smooth="yes"/>
      <point x="208" y="449"/>
      <point x="249" y="404"/>
      <point x="315" y="388" type="curve"/>
      <point x="317" y="404" type="line"/>
      <point x="168" y="374"/>
      <point x="94" y="297"/>
      <point x="94" y="183" type="curve" smooth="yes"/>
      <point x="94" y="69"/>
      <point x="168" y="-5"/>
      <point x="272" y="-5" type="curve" smooth="yes"/>
      <point x="378" y="-5" type="line" smooth="yes"/>
      <point x="392" y="-5"/>
      <point x="399" y="-14"/>
      <point x="399" y="-30" type="curve" smooth="yes"/>
      <point x="399" y="-51"/>
      <point x="387" y="-80"/>
      <point x="380" y="-93" type="curve" smooth="yes"/>
      <point x="320" y="-200" type="line"/>
      <point x="404" y="-200" type="line"/>
      <point x="472" y="-77" type="line" smooth="yes"/>
      <point x="483" y="-57"/>
      <point x="492" y="-22"/>
      <point x="492" y="1" type="curve" smooth="yes"/>
      <point x="492" y="42"/>
      <point x="463" y="75"/>
      <point x="380" y="75" type="curve" smooth="yes"/>
      <point x="293" y="75" type="line" smooth="yes"/>
      <point x="233" y="75"/>
      <point x="188" y="118"/>
      <point x="188" y="186" type="curve" smooth="yes"/>
      <point x="188" y="282"/>
      <point x="276" y="357"/>
      <point x="392" y="357" type="curve" smooth="yes"/>
      <point x="504" y="357" type="line"/>
      <point x="519" y="426" type="line"/>
      <point x="433" y="426" type="line" smooth="yes"/>
      <point x="372" y="426"/>
      <point x="302" y="437"/>
      <point x="302" y="513" type="curve" smooth="yes"/>
      <point x="302" y="595"/>
      <point x="385" y="636"/>
      <point x="457" y="657" type="curve"/>
      <point x="374" y="648" type="line"/>
      <point x="599" y="648" type="line"/>
      <point x="616" y="722" type="line"/>
      <point x="237" y="722" type="line"/>
    </contour>
  </outline>
</glyph>
<glyph name="pi" format="2">
  <advance width="608"/>
  <unicode hex="03C0"/>
  <outline>
    <contour>
      <point x="193" y="444" type="line"/>
      <point x="91" y="0" type="line"/>
      <point x="181" y="0" type="line"/>
      <point x="283" y="444" type="line"/>
    </contour>
    <contour>
      <point x="682" y="428" type="line"/>
      <point x="699" y="500" type="line"/>
      <point x="137" y="500" type="line"/>
      <point x="120" y="428" type="line"/>
    </contour>
    <contour>
      <point x="522" y="444" type="line"/>
      <point x="438" y="73" type="line"/>
      <point x="436" y="66"/>
      <point x="435" y="53"/>
      <point x="435" y="46" type="curve" smooth="yes"/>
      <point x="435" y="13"/>
      <point x="464" y="-12"/>
      <point x="503" y="-12" type="curve" smooth="yes"/>
      <point x="534" y="-12"/>
      <point x="551" y="-10"/>
      <point x="582" y="-5" type="curve"/>
      <point x="597" y="62" type="line"/>
      <point x="589" y="61"/>
      <point x="581" y="60"/>
      <point x="573" y="60" type="curve" smooth="yes"/>
      <point x="564" y="60" type="line" smooth="yes"/>
      <point x="548" y="60"/>
      <point x="532" y="69"/>
      <point x="532" y="87" type="curve" smooth="yes"/>
      <point x="532" y="90"/>
      <point x="532" y="92"/>
      <point x="533" y="95" type="curve"/>
      <point x="612" y="444" type="line"/>
    </contour>
  </outline>
</glyph>
<glyph name="sigma1" format="2">
  <advance width="551"/>
  <unicode hex="03C2"/>
  <outline>
    <contour>
      <point x="92" y="198" type="curve" smooth="yes"/>
      <point x="92" y="113"/>
      <point x="128" y="55"/>
      <point x="192" y="39" type="curve" smooth="yes"/>
      <point x="371" y="-7" type="line" smooth="yes"/>
      <point x="386" y="-11"/>
      <point x="396" y="-21"/>
      <point x="396" y="-34" type="curve" smooth="yes"/>
      <point x="396" y="-49"/>
      <point x="384" y="-75"/>
      <point x="378" y="-85" type="curve" smooth="yes"/>
      <point x="313" y="-200" type="line"/>
      <point x="393" y="-200" type="line"/>
      <point x="458" y="-86" type="line" smooth="yes"/>
      <point x="475" y="-57"/>
      <point x="484" y="-27"/>
      <point x="484" y="-4" type="curve" smooth="yes"/>
      <point x="484" y="22"/>
      <point x="471" y="47"/>
      <point x="447" y="54" type="curve" smooth="yes"/>
      <point x="269" y="108" type="line" smooth="yes"/>
      <point x="216" y="124"/>
      <point x="186" y="166"/>
      <point x="186" y="232" type="curve" smooth="yes"/>
      <point x="186" y="342"/>
      <point x="268" y="440"/>
      <point x="365" y="440" type="curve" smooth="yes"/>
      <point x="447" y="440"/>
      <point x="489" y="409"/>
      <point x="489" y="348" type="curve" smooth="yes"/>
      <point x="489" y="339"/>
      <point x="488" y="329"/>
      <point x="486" y="318" type="curve"/>
      <point x="573" y="318" type="line"/>
      <point x="577" y="337"/>
      <point x="578" y="355"/>
      <point x="578" y="367" type="curve" smooth="yes"/>
      <point x="578" y="464"/>
      <point x="515" y="512"/>
      <point x="388" y="512" type="curve" smooth="yes"/>
      <point x="213" y="512"/>
      <point x="92" y="383"/>
    </contour>
  </outline>
</glyph>
<glyph name="sigma" format="2">
  <advance width="608"/>
  <unicode hex="03C3"/>
  <outline>
    <component base="o"/>
    <contour>
      <point x="545" y="431" type="line"/>
      <point x="699" y="431" type="line"/>
      <point x="715" y="500" type="line"/>
      <point x="503" y="500" type="line"/>
    </contour>
  </outline>
</glyph>
<glyph name="tau" format="2">
  <advance width="496"/>
  <unicode hex="03C4"/>
  <outline>
    <contour>
      <point x="562" y="428" type="line"/>
      <point x="579" y="500" type="line"/>
      <point x="137" y="500" type="line"/>
      <point x="120" y="428" type="line"/>
    </contour>
    <contour>
      <point x="302" y="444" type="line"/>
      <point x="218" y="73" type="line"/>
      <point x="216" y="66"/>
      <point x="215" y="53"/>
      <point x="215" y="46" type="curve" smooth="yes"/>
      <point x="215" y="13"/>
      <point x="244" y="-12"/>
      <point x="283" y="-12" type="curve" smooth="yes"/>
      <point x="314" y="-12"/>
      <point x="331" y="-10"/>
      <point x="362" y="-5" type="curve"/>
      <point x="377" y="62" type="line"/>
      <point x="369" y="61"/>
      <point x="361" y="60"/>
      <point x="353" y="60" type="curve" smooth="yes"/>
      <point x="344" y="60" type="line" smooth="yes"/>
      <point x="328" y="60"/>
      <point x="312" y="69"/>
      <point x="312" y="87" type="curve" smooth="yes"/>
      <point x="312" y="90"/>
      <point x="312" y="92"/>
      <point x="313" y="95" type="curve"/>
      <point x="392" y="444" type="line"/>
    </contour>
  </outline>
</glyph>
<glyph name="upsilon" format="2">
  <advance width="608"/>
  <unicode hex="03C5"/>
  <anchor x="422" y="580" name="top"/>
  <outline>
    <contour>
      <point x="122" y="159" type="line" smooth="yes"/>
      <point x="118" y="142"/>
      <point x="116" y="126"/>
      <point x="116" y="112" type="curve" smooth="yes"/>
      <point x="116" y="18"/>
      <point x="199" y="-12"/>
      <point x="300" y="-12" type="curve" smooth="yes"/>
      <point x="411" y="-12"/>
      <point x="519" y="24"/>
      <point x="550" y="160" type="curve" smooth="yes"/>
      <point x="628" y="500" type="line"/>
      <point x="538" y="500" type="line"/>
      <point x="457" y="148" type="line" smooth="yes"/>
      <point x="446" y="101"/>
      <point x="405" y="57"/>
      <point x="333" y="57" type="curve" smooth="yes"/>
      <point x="289" y="57"/>
      <point x="210" y="62"/>
      <point x="210" y="136" type="curve" smooth="yes"/>
      <point x="210" y="145"/>
      <point x="211" y="155"/>
      <point x="214" y="167" type="curve" smooth="yes"/>
      <point x="291" y="500" type="line"/>
      <point x="201" y="500" type="line"/>
    </contour>
  </outline>
</glyph>
<glyph name="phi" format="2">
  <advance width="719"/>
  <unicode hex="03C6"/>
  <outline>
    <contour>
      <point x="376" y="54" type="line"/>
      <point x="274" y="54"/>
      <point x="190" y="91"/>
      <point x="190" y="210" type="curve" smooth="yes"/>
      <point x="190" y="301"/>
      <point x="240" y="397"/>
      <point x="337" y="438" type="curve"/>
      <point x="352" y="502" type="line"/>
      <point x="202" y="482"/>
      <point x="104" y="334"/>
      <point x="104" y="196" type="curve" smooth="yes"/>
      <point x="104" y="42"/>
      <point x="226" y="-12"/>
      <point x="362" y="-12" type="curve"/>
    </contour>
    <contour>
      <point x="362" y="-12" type="line"/>
      <point x="584" y="-12"/>
      <point x="720" y="120"/>
      <point x="720" y="321" type="curve" smooth="yes"/>
      <point x="720" y="437"/>
      <point x="642" y="512"/>
      <point x="488" y="512" type="curve" smooth="yes"/>
      <point x="470" y="512"/>
      <point x="448" y="512"/>
      <point x="428" y="511" type="curve"/>
      <point x="265" y="-198" type="line"/>
      <point x="350" y="-198" type="line"/>
      <point x="501" y="460" type="line"/>
      <point x="475" y="445" type="line"/>
      <point x="582" y="438"/>
      <point x="634" y="385"/>
      <point x="634" y="295" type="curve" smooth="yes"/>
      <point x="634" y="152"/>
      <point x="546" y="54"/>
      <point x="376" y="54" type="curve"/>
    </contour>
  </outline>
</glyph>
<glyph name="psi" format="2">
  <advance width="719"/>
  <unicode hex="03C8"/>
  <outline>
    <contour>
      <point x="681" y="185" type="curve" smooth="yes"/>
      <point x="754" y="503" type="line"/>
      <point x="665" y="503" type="line"/>
      <point x="586" y="162" type="line" smooth="yes"/>
      <point x="570" y="92"/>
      <point x="497" y="59"/>
      <point x="431" y="59" type="curve" smooth="yes"/>
      <point x="411" y="59"/>
      <point x="397" y="62"/>
      <point x="391" y="66" type="curve"/>
      <point x="404" y="33" type="line"/>
      <point x="561" y="722" type="line"/>
      <point x="476" y="722" type="line"/>
      <point x="319" y="33" type="line"/>
      <point x="348" y="64" type="line"/>
      <point x="337" y="60"/>
      <point x="323" y="58"/>
      <point x="309" y="58" type="curve" smooth="yes"/>
      <point x="260" y="58"/>
      <point x="191" y="83"/>
      <point x="191" y="142" type="curve" smooth="yes"/>
      <point x="191" y="149"/>
      <point x="191" y="155"/>
      <point x="193" y="162" type="curve"/>
      <point x="272" y="503" type="line"/>
      <point x="183" y="503" type="line"/>
      <point x="108" y="184" type="line" smooth="yes"/>
      <point x="104" y="166"/>
      <point x="102" y="150"/>
      <point x="102" y="136" type="curve" smooth="yes"/>
      <point x="102" y="13"/>
      <point x="239" y="-11"/>
      <point x="354" y="-11" type="curve" smooth="yes"/>
      <point x="492" y="-11"/>
      <point x="643" y="23"/>
    </contour>
    <contour>
      <point x="311" y="4" type="line"/>
      <point x="266" y="-200" type="line"/>
      <point x="351" y="-200" type="line"/>
      <point x="396" y="4" type="line"/>
    </contour>
  </outline>
</glyph>
<glyph name="omega" format="2">
  <advance width="719"/>
  <unicode hex="03C9"/>
  <anchor x="484" y="580" name="top"/>
  <outline>
    <contour>
      <point x="75" y="156" type="curve" smooth="yes"/>
      <point x="75" y="65"/>
      <point x="104" y="-12"/>
      <point x="217" y="-12" type="curve" smooth="yes"/>
      <point x="278" y="-12"/>
      <point x="341" y="30"/>
      <point x="372" y="77" type="curve"/>
      <point x="368" y="77" type="line"/>
      <point x="375" y="27"/>
      <point x="401" y="-12"/>
      <point x="479" y="-12" type="curve" smooth="yes"/>
      <point x="645" y="-12"/>
      <point x="732" y="168"/>
      <point x="732" y="316" type="curve" smooth="yes"/>
      <point x="732" y="385"/>
      <point x="713" y="443"/>
      <point x="673" y="500" type="curve"/>
      <point x="575" y="500" type="line"/>
      <point x="620" y="451"/>
      <point x="643" y="381"/>
      <point x="643" y="314" type="curve" smooth="yes"/>
      <point x="643" y="218"/>
      <point x="596" y="60"/>
      <point x="493" y="60" type="curve" smooth="yes"/>
      <point x="453" y="60"/>
      <point x="428" y="85"/>
      <point x="428" y="125" type="curve" smooth="yes"/>
      <point x="428" y="134"/>
      <point x="429" y="143"/>
      <point x="431" y="152" type="curve" smooth="yes"/>
      <point x="486" y="387" type="line"/>
      <point x="395" y="387" type="line"/>
      <point x="335" y="132" type="line" smooth="yes"/>
      <point x="325" y="91"/>
      <point x="282" y="60"/>
      <point x="239" y="60" type="curve" smooth="yes"/>
      <point x="186" y="60"/>
      <point x="165" y="106"/>
      <point x="165" y="174" type="curve" smooth="yes"/>
      <point x="165" y="315"/>
      <point x="256" y="402"/>
      <point x="357" y="500" type="curve"/>
      <point x="262" y="500" type="line"/>
      <point x="146" y="402"/>
      <point x="75" y="298"/>
    </contour>
  </outline>
</glyph>
<glyph name="uni03D0" format="2">
  <advance width="608"/>
  <unicode hex="03D0"/>
  <outline>
    <contour>
      <point x="495" y="646" type="curve" smooth="yes"/>
      <point x="535" y="646"/>
      <point x="561" y="620"/>
      <point x="561" y="584" type="curve" smooth="yes"/>
      <point x="561" y="532"/>
      <point x="506" y="473"/>
      <point x="460" y="451" type="curve"/>
      <point x="448" y="454"/>
      <point x="434" y="455"/>
      <point x="422" y="455" type="curve" smooth="yes"/>
      <point x="357" y="455"/>
      <point x="289" y="423"/>
      <point x="235" y="369" type="curve"/>
      <point x="272" y="483"/>
      <point x="350" y="646"/>
    </contour>
    <contour>
      <point x="382" y="379" type="curve" smooth="yes"/>
      <point x="456" y="379"/>
      <point x="499" y="329"/>
      <point x="499" y="253" type="curve" smooth="yes"/>
      <point x="499" y="152"/>
      <point x="422" y="52"/>
      <point x="320" y="52" type="curve" smooth="yes"/>
      <point x="257" y="52"/>
      <point x="200" y="91"/>
      <point x="200" y="167" type="curve" smooth="yes"/>
      <point x="200" y="288"/>
      <point x="282" y="379"/>
    </contour>
    <contour>
      <point x="114" y="179" type="curve" smooth="yes"/>
      <point x="114" y="79"/>
      <point x="150" y="-12"/>
      <point x="298" y="-12" type="curve" smooth="yes"/>
      <point x="447" y="-12"/>
      <point x="596" y="126"/>
      <point x="596" y="272" type="curve" smooth="yes"/>
      <point x="596" y="337"/>
      <point x="567" y="401"/>
      <point x="522" y="425" type="curve"/>
      <point x="583" y="461"/>
      <point x="655" y="543"/>
      <point x="655" y="615" type="curve" smooth="yes"/>
      <point x="655" y="695"/>
      <point x="570" y="722"/>
      <point x="503" y="722" type="curve" smooth="yes"/>
      <point x="267" y="722"/>
      <point x="114" y="384"/>
    </contour>
  </outline>
</glyph>
<glyph name="theta1" format="2">
  <advance width="608"/>
  <unicode hex="03D1"/>
  <outline>
    <contour>
      <point x="310" y="48" type="curve" smooth="yes"/>
      <point x="243" y="48"/>
      <point x="198" y="74"/>
      <point x="198" y="130" type="curve" smooth="yes"/>
      <point x="198" y="138"/>
      <point x="199" y="146"/>
      <point x="201" y="153" type="curve"/>
      <point x="243" y="331" type="line"/>
      <point x="154" y="331" type="line"/>
      <point x="112" y="149" type="line"/>
      <point x="109" y="138"/>
      <point x="109" y="128"/>
      <point x="109" y="118" type="curve" smooth="yes"/>
      <point x="109" y="26"/>
      <point x="172" y="-21"/>
      <point x="306" y="-21" type="curve" smooth="yes"/>
      <point x="534" y="-21"/>
      <point x="632" y="302"/>
      <point x="632" y="497" type="curve" smooth="yes"/>
      <point x="632" y="628"/>
      <point x="563" y="732"/>
      <point x="409" y="732" type="curve" smooth="yes"/>
      <point x="297" y="732"/>
      <point x="220" y="677"/>
      <point x="220" y="583" type="curve" smooth="yes"/>
      <point x="220" y="428"/>
      <point x="426" y="343"/>
      <point x="556" y="336" type="curve"/>
      <point x="561" y="388" type="line"/>
      <point x="481" y="399"/>
      <point x="309" y="448"/>
      <point x="309" y="561" type="curve" smooth="yes"/>
      <point x="309" y="606"/>
      <point x="337" y="657"/>
      <point x="408" y="657" type="curve" smooth="yes"/>
      <point x="492" y="657"/>
      <point x="543" y="584"/>
      <point x="543" y="469" type="curve" smooth="yes"/>
      <point x="543" y="323"/>
      <point x="461" y="48"/>
    </contour>
  </outline>
</glyph>
<glyph name="uni0404" format="2">
  <advance width="711"/>
  <unicode hex="0404"/>
  <outline>
    <contour>
      <point x="794" y="573" type="line"/>
      <point x="766" y="674"/>
      <point x="687" y="736"/>
      <point x="545" y="736" type="curve" smooth="yes"/>
      <point x="329" y="736"/>
      <point x="185" y="589"/>
      <point x="136" y="376" type="curve" smooth="yes"/>
      <point x="82" y="144"/>
      <point x="171" y="-13"/>
      <point x="373" y="-13" type="curve" smooth="yes"/>
      <point x="513" y="-13"/>
      <point x="631" y="67"/>
      <point x="701" y="167" type="curve"/>
      <point x="592" y="167" type="line"/>
      <point x="546" y="113"/>
      <point x="480" y="75"/>
      <point x="394" y="75" type="curve" smooth="yes"/>
      <point x="231" y="75"/>
      <point x="200" y="185"/>
      <point x="230" y="327" type="curve"/>
      <point x="519" y="327" type="line"/>
      <point x="540" y="414" type="line"/>
      <point x="251" y="414" type="line"/>
      <point x="271" y="499"/>
      <point x="346" y="650"/>
      <point x="527" y="650" type="curve" smooth="yes"/>
      <point x="606" y="650"/>
      <point x="659" y="625"/>
      <point x="684" y="574" type="curve"/>
    </contour>
  </outline>
</glyph>
<glyph name="Dzhecyr" format="2">
  <advance width="703"/>
  <unicode hex="040F"/>
  <outline>
    <component base="uni041F" xScale="-1" yScale="-1" xOffset="870" yOffset="722"/>
    <contour>
      <point x="265" y="-162" type="line"/>
      <point x="365" y="-162" type="line"/>
      <point x="409" y="30" type="line"/>
      <point x="309" y="30" type="line"/>
    </contour>
  </outline>
</glyph>
<glyph name="uni0413" format="2">
  <advance width="500"/>
  <unicode hex="0413"/>
  <anchor x="444" y="800" name="top"/>
  <outline>
    <contour>
      <point x="627" y="635" type="line"/>
      <point x="647" y="722" type="line"/>
      <point x="227" y="722" type="line"/>
      <point x="60" y="0" type="line"/>
      <point x="161" y="0" type="line"/>
      <point x="308" y="635" type="line"/>
    </contour>
  </outline>
</glyph>
<glyph name="uni0414" format="2">
  <advance width="699"/>
  <unicode hex="0414"/>
  <outline>
    <contour>
      <point x="647" y="-162" type="line"/>
      <point x="704" y="86" type="line"/>
      <point x="625" y="86" type="line"/>
      <point x="772" y="722" type="line"/>
      <point x="337" y="722" type="line"/>
      <point x="306" y="585" type="line" smooth="yes"/>
      <point x="266" y="410"/>
      <point x="217" y="229"/>
      <point x="66" y="85" type="curve"/>
      <point x="10" y="85" type="line"/>
      <point x="-47" y="-162" type="line"/>
      <point x="53" y="-162" type="line"/>
      <point x="90" y="-1" type="line"/>
      <point x="584" y="-1" type="line"/>
      <point x="547" y="-162" type="line"/>
    </contour>
    <contour>
      <point x="523" y="86" type="line"/>
      <point x="176" y="86" type="line"/>
      <point x="310" y="224"/>
      <point x="358" y="408"/>
      <point x="397" y="574" type="curve" smooth="yes"/>
      <point x="411" y="635" type="line"/>
      <point x="652" y="635" type="line"/>
    </contour>
  </outline>
</glyph>
<glyph name="uni0416" format="2">
  <advance width="959"/>
  <unicode hex="0416"/>
  <anchor x="665" y="800" name="top"/>
  <outline>
    <contour>
      <point x="517" y="381" type="line"/>
      <point x="429" y="0" type="line"/>
      <point x="530" y="0" type="line"/>
      <point x="618" y="381" type="line"/>
      <point x="804" y="0" type="line"/>
      <point x="939" y="0" type="line"/>
      <point x="740" y="411" type="line"/>
      <point x="1069" y="722" type="line"/>
      <point x="945" y="722" type="line"/>
      <point x="626" y="415" type="line"/>
      <point x="697" y="722" type="line"/>
      <point x="596" y="722" type="line"/>
      <point x="525" y="415" type="line"/>
      <point x="348" y="722" type="line"/>
      <point x="224" y="722" type="line"/>
      <point x="409" y="411" type="line"/>
      <point x="20" y="0" type="line"/>
      <point x="155" y="0" type="line"/>
    </contour>
  </outline>
</glyph>
<glyph name="uni0418" format="2">
  <advance width="683"/>
  <unicode hex="0418"/>
  <anchor x="505" y="800" name="top"/>
  <outline>
    <contour>
      <point x="60" y="0" type="line"/>
      <point x="204" y="0" type="line"/>
      <point x="659" y="592" type="line"/>
      <point x="522" y="0" type="line"/>
      <point x="623" y="0" type="line"/>
      <point x="790" y="722" type="line"/>
      <point x="647" y="722" type="line"/>
      <point x="191" y="130" type="line"/>
      <point x="328" y="722" type="line"/>
      <point x="227" y="722" type="line"/>
    </contour>
  </outline>
</glyph>
<glyph name="uni041B" format="2">
  <advance width="687"/>
  <unicode hex="041B"/>
  <outline>
    <contour>
      <point x="412" y="637" type="line"/>
      <point x="680" y="637" type="line"/>
      <point x="533" y="0" type="line"/>
      <point x="633" y="0" type="line"/>
      <point x="800" y="722" type="line"/>
      <point x="332" y="722" type="line"/>
      <point x="262" y="418" type="line" smooth="yes"/>
      <point x="221" y="242"/>
      <point x="173" y="82"/>
      <point x="72" y="82" type="curve" smooth="yes"/>
      <point x="62" y="82"/>
      <point x="45" y="83"/>
      <point x="35" y="88" type="curve"/>
      <point x="15" y="2" type="line"/>
      <point x="28" y="-4"/>
      <point x="47" y="-7"/>
      <point x="66" y="-7" type="curve" smooth="yes"/>
      <point x="228" y="-7"/>
      <point x="295" y="129"/>
      <point x="356" y="394" type="curve" smooth="yes"/>
    </contour>
  </outline>
</glyph>
<glyph name="uni0423" format="2">
  <advance width="666"/>
  <unicode hex="0423"/>
  <anchor x="519" y="800" name="top"/>
  <outline>
    <contour>
      <point x="818" y="722" type="line"/>
      <point x="704" y="722" type="line"/>
      <point x="418" y="328" type="line"/>
      <point x="305" y="722" type="line"/>
      <point x="182" y="722" type="line"/>
      <point x="352" y="225" type="line"/>
      <point x="292" y="135"/>
      <point x="246" y="71"/>
      <point x="168" y="71" type="curve" smooth="yes"/>
      <point x="138" y="71"/>
      <point x="92" y="86"/>
      <point x="82" y="102" type="curve"/>
      <point x="66" y="34" type="line"/>
      <point x="87" y="14"/>
      <point x="125" y="-10"/>
      <point x="168" y="-10" type="curve" smooth="yes"/>
      <point x="285" y="-10"/>
      <point x="340" y="65"/>
      <point x="401" y="148" type="curve" smooth="yes"/>
    </contour>
  </outline>
</glyph>
<glyph name="uni0424" format="2">
  <advance width="735"/>
  <unicode hex="0424"/>
  <outline>
    <contour>
      <point x="221" y="273" type="curve" smooth="yes"/>
      <point x="221" y="397"/>
      <point x="292" y="563"/>
      <point x="442" y="563" type="curve"/>
      <point x="347" y="153" type="line"/>
      <point x="264" y="153"/>
      <point x="221" y="177"/>
    </contour>
    <contour>
      <point x="120" y="248" type="curve" smooth="yes"/>
      <point x="120" y="107"/>
      <point x="219" y="65"/>
      <point x="329" y="65" type="curve"/>
      <point x="314" y="0" type="line"/>
      <point x="413" y="0" type="line"/>
      <point x="428" y="65" type="line"/>
      <point x="651" y="65"/>
      <point x="783" y="266"/>
      <point x="783" y="469" type="curve" smooth="yes"/>
      <point x="783" y="598"/>
      <point x="681" y="654"/>
      <point x="563" y="654" type="curve"/>
      <point x="577" y="722" type="line"/>
      <point x="478" y="722" type="line"/>
      <point x="463" y="654" type="line"/>
      <point x="239" y="654"/>
      <point x="120" y="450"/>
    </contour>
    <contour>
      <point x="449" y="153" type="curve"/>
      <point x="543" y="563" type="line"/>
      <point x="626" y="563"/>
      <point x="682" y="545"/>
      <point x="682" y="442" type="curve" smooth="yes"/>
      <point x="682" y="319"/>
      <point x="601" y="153"/>
    </contour>
  </outline>
</glyph>
<glyph name="uni0426" format="2">
  <advance width="699"/>
  <unicode hex="0426"/>
  <outline>
    <contour>
      <point x="578" y="0" type="line"/>
      <point x="542" y="-155" type="line"/>
      <point x="643" y="-155" type="line"/>
      <point x="699" y="87" type="line"/>
      <point x="629" y="87" type="line"/>
      <point x="776" y="722" type="line"/>
      <point x="675" y="722" type="line"/>
      <point x="528" y="87" type="line"/>
      <point x="181" y="87" type="line"/>
      <point x="328" y="722" type="line"/>
      <point x="227" y="722" type="line"/>
      <point x="60" y="0" type="line"/>
    </contour>
  </outline>
</glyph>
<glyph name="uni0428" format="2">
  <advance width="863"/>
  <unicode hex="0428"/>
  <outline>
    <contour>
      <point x="407" y="87" type="line"/>
      <point x="198" y="87" type="line"/>
      <point x="345" y="722" type="line"/>
      <point x="244" y="722" type="line"/>
      <point x="77" y="0" type="line"/>
      <point x="786" y="0" type="line"/>
      <point x="953" y="722" type="line"/>
      <point x="852" y="722" type="line"/>
      <point x="705" y="87" type="line"/>
      <point x="508" y="87" type="line"/>
      <point x="655" y="722" type="line"/>
      <point x="554" y="722" type="line"/>
    </contour>
  </outline>
</glyph>
<glyph name="uni0434" format="2">
  <advance width="584"/>
  <unicode hex="0434"/>
  <outline>
    <contour>
      <point x="197" y="654" type="curve"/>
      <point x="222" y="722" type="line"/>
      <point x="372" y="702"/>
      <point x="588" y="663"/>
      <point x="588" y="364" type="curve" smooth="yes"/>
      <point x="588" y="352" type="line"/>
      <point x="490" y="352" type="line"/>
      <point x="490" y="411" type="line" smooth="yes"/>
      <point x="490" y="559"/>
      <point x="363" y="632"/>
    </contour>
    <contour>
      <point x="87" y="181" type="curve" smooth="yes"/>
      <point x="87" y="351"/>
      <point x="223" y="502"/>
      <point x="412" y="502" type="curve" smooth="yes"/>
      <point x="501" y="502"/>
      <point x="588" y="435"/>
      <point x="588" y="350" type="curve" smooth="yes"/>
      <point x="588" y="170"/>
      <point x="475" y="-12"/>
      <point x="285" y="-12" type="curve" smooth="yes"/>
      <point x="160" y="-12"/>
      <point x="87" y="57"/>
    </contour>
    <contour>
      <point x="185" y="187" type="curve" smooth="yes"/>
      <point x="185" y="112"/>
      <point x="221" y="53"/>
      <point x="303" y="53" type="curve" smooth="yes"/>
      <point x="429" y="53"/>
      <point x="490" y="217"/>
      <point x="490" y="332" type="curve" smooth="yes"/>
      <point x="490" y="342.587"/>
      <point x="490" y="383.642"/>
      <point x="490" y="393" type="curve"/>
      <point x="469" y="421"/>
      <point x="434" y="436"/>
      <point x="393" y="436" type="curve" smooth="yes"/>
      <point x="268" y="436"/>
      <point x="185" y="302"/>
    </contour>
  </outline>
</glyph>
<glyph name="uni043A" format="2">
  <advance width="512"/>
  <unicode hex="043A"/>
  <outline>
    <contour>
      <point x="93" y="0" type="line"/>
      <point x="183" y="0" type="line"/>
      <point x="298" y="500" type="line"/>
      <point x="208" y="500" type="line"/>
    </contour>
    <contour>
      <point x="384" y="0" type="line"/>
      <point x="502" y="0" type="line"/>
      <point x="335" y="265" type="line"/>
      <point x="604" y="500" type="line"/>
      <point x="486" y="500" type="line"/>
      <point x="235" y="260" type="line"/>
    </contour>
  </outline>
</glyph>
<glyph name="uni043C" format="2">
  <advance width="811"/>
  <unicode hex="043C"/>
  <outline>
    <contour>
      <point x="723" y="0" type="line"/>
      <point x="838" y="500" type="line"/>
      <point x="676" y="500" type="line"/>
      <point x="425" y="78" type="line"/>
      <point x="369" y="500" type="line"/>
      <point x="208" y="500" type="line"/>
      <point x="93" y="0" type="line"/>
      <point x="183" y="0" type="line"/>
      <point x="282" y="430" type="line"/>
      <point x="349" y="0" type="line"/>
      <point x="465" y="0" type="line"/>
      <point x="732" y="430" type="line"/>
      <point x="633" y="0" type="line"/>
    </contour>
  </outline>
</glyph>
<glyph name="uni043D" format="2">
  <advance width="631"/>
  <unicode hex="043D"/>
  <outline>
    <contour>
      <point x="543" y="0" type="line"/>
      <point x="658" y="500" type="line"/>
      <point x="568" y="500" type="line"/>
      <point x="521" y="296" type="line"/>
      <point x="251" y="296" type="line"/>
      <point x="298" y="500" type="line"/>
      <point x="208" y="500" type="line"/>
      <point x="93" y="0" type="line"/>
      <point x="183" y="0" type="line"/>
      <point x="237" y="233" type="line"/>
      <point x="507" y="233" type="line"/>
      <point x="453" y="0" type="line"/>
    </contour>
  </outline>
</glyph>
<glyph name="uni0448" format="2">
  <advance width="936"/>
  <unicode hex="0448"/>
  <outline>
    <contour>
      <point x="131" y="175" type="line" smooth="yes"/>
      <point x="126" y="151"/>
      <point x="123" y="130"/>
      <point x="123" y="111" type="curve" smooth="yes"/>
      <point x="123" y="30"/>
      <point x="174" y="-12"/>
      <point x="274" y="-12" type="curve" smooth="yes"/>
      <point x="340" y="-12"/>
      <point x="400" y="18"/>
      <point x="456" y="77" type="curve"/>
      <point x="479" y="15"/>
      <point x="510" y="-12"/>
      <point x="606" y="-12" type="curve" smooth="yes"/>
      <point x="665" y="-12"/>
      <point x="720" y="14"/>
      <point x="773" y="69" type="curve"/>
      <point x="758" y="0" type="line"/>
      <point x="848" y="0" type="line"/>
      <point x="963" y="500" type="line"/>
      <point x="873" y="500" type="line"/>
      <point x="798" y="177" type="line" smooth="yes"/>
      <point x="785" y="121"/>
      <point x="710" y="52"/>
      <point x="636" y="52" type="curve" smooth="yes"/>
      <point x="580" y="52"/>
      <point x="549" y="92"/>
      <point x="549" y="144" type="curve" smooth="yes"/>
      <point x="549" y="154"/>
      <point x="550" y="166"/>
      <point x="553" y="177" type="curve"/>
      <point x="628" y="500" type="line"/>
      <point x="538" y="500" type="line"/>
      <point x="463" y="177" type="line" smooth="yes"/>
      <point x="450" y="121"/>
      <point x="376" y="52"/>
      <point x="298" y="52" type="curve" smooth="yes"/>
      <point x="246" y="52"/>
      <point x="217" y="82"/>
      <point x="217" y="134" type="curve" smooth="yes"/>
      <point x="217" y="147"/>
      <point x="219" y="162"/>
      <point x="223" y="178" type="curve" smooth="yes"/>
      <point x="297" y="500" type="line"/>
      <point x="207" y="500" type="line"/>
    </contour>
  </outline>
</glyph>
<glyph name="uni044C" format="2">
  <advance width="593"/>
  <unicode hex="044C"/>
  <outline>
    <contour>
      <point x="129" y="143" type="curve" smooth="yes"/>
      <point x="129" y="47"/>
      <point x="200" y="-13"/>
      <point x="322" y="-13" type="curve" smooth="yes"/>
      <point x="483" y="-13"/>
      <point x="606" y="93"/>
      <point x="606" y="240" type="curve" smooth="yes"/>
      <point x="606" y="351"/>
      <point x="535" y="393"/>
      <point x="434" y="393" type="curve" smooth="yes"/>
      <point x="358" y="393"/>
      <point x="302" y="369"/>
      <point x="255" y="325" type="curve"/>
      <point x="295" y="500" type="line"/>
      <point x="205" y="500" type="line"/>
      <point x="135" y="195" type="line" smooth="yes"/>
      <point x="131" y="177"/>
      <point x="129" y="159"/>
    </contour>
    <contour>
      <point x="230" y="169" type="curve" smooth="yes"/>
      <point x="230" y="264"/>
      <point x="301" y="329"/>
      <point x="394" y="329" type="curve" smooth="yes"/>
      <point x="474" y="329"/>
      <point x="505" y="280"/>
      <point x="505" y="216" type="curve" smooth="yes"/>
      <point x="505" y="126"/>
      <point x="443" y="52"/>
      <point x="345" y="52" type="curve" smooth="yes"/>
      <point x="264" y="52"/>
      <point x="230" y="103"/>
    </contour>
  </outline>
</glyph>
<glyph name="djecyr" format="2">
  <advance width="610"/>
  <unicode hex="0452"/>
  <outline>
    <component base="h"/>
    <component base="macron" xOffset="6" yOffset="-60"/>
    <contour>
      <point x="209" y="-144" type="line"/>
      <point x="234" y="-177"/>
      <point x="284" y="-200"/>
      <point x="338" y="-200" type="curve" smooth="yes"/>
      <point x="422" y="-200"/>
      <point x="494" y="-145"/>
      <point x="513" y="-62" type="curve" smooth="yes"/>
      <point x="527" y="0" type="line"/>
      <point x="437" y="0" type="line"/>
      <point x="422" y="-63" type="line" smooth="yes"/>
      <point x="412" y="-105"/>
      <point x="378" y="-131"/>
      <point x="342" y="-131" type="curve" smooth="yes"/>
      <point x="315" y="-131"/>
      <point x="286" y="-118"/>
      <point x="270" y="-95" type="curve"/>
    </contour>
  </outline>
</glyph>
<glyph name="uni0454" format="2">
  <advance width="591"/>
  <unicode hex="0454"/>
  <outline>
    <contour>
      <point x="476" y="146" type="line"/>
      <point x="440" y="92"/>
      <point x="388" y="52"/>
      <point x="322" y="52" type="curve" smooth="yes"/>
      <point x="234" y="52"/>
      <point x="199" y="126"/>
      <point x="211" y="217" type="curve"/>
      <point x="436" y="217" type="line"/>
      <point x="451" y="280" type="line"/>
      <point x="225" y="280" type="line"/>
      <point x="255" y="370"/>
      <point x="325" y="448"/>
      <point x="414" y="448" type="curve" smooth="yes"/>
      <point x="474" y="448"/>
      <point x="507" y="416"/>
      <point x="521" y="367" type="curve"/>
      <point x="623" y="367" type="line"/>
      <point x="610" y="461"/>
      <point x="531" y="511"/>
      <point x="429" y="511" type="curve" smooth="yes"/>
      <point x="287" y="511"/>
      <point x="161" y="418"/>
      <point x="122" y="248" type="curve" smooth="yes"/>
      <point x="83" y="77"/>
      <point x="166" y="-15"/>
      <point x="308" y="-15" type="curve" smooth="yes"/>
      <point x="416" y="-15"/>
      <point x="519" y="40"/>
      <point x="575" y="143" type="curve"/>
    </contour>
  </outline>
</glyph>
<glyph name="uni1FED" format="2">
  <advance width="324"/>
  <unicode hex="1FED"/>
  <anchor x="293" y="580" name="_top"/>
  <outline>
    <contour>
      <point x="224" y="580" type="line"/>
      <point x="246" y="672" type="line"/>
      <point x="156" y="672" type="line"/>
      <point x="134" y="580" type="line"/>
    </contour>
    <contour>
      <point x="444" y="580" type="line"/>
      <point x="466" y="672" type="line"/>
      <point x="376" y="672" type="line"/>
      <point x="354" y="580" type="line"/>
    </contour>
    <contour>
      <point x="344" y="672" type="line"/>
      <point x="283" y="843" type="line"/>
      <point x="182" y="843" type="line"/>
      <point x="283" y="672" type="line"/>
    </contour>
  </outline>
</glyph>
<glyph name="uni1FFD" format="2">
  <advance width="229"/>
  <unicode hex="1FFD"/>
  <outline>
    <contour>
      <point x="433" y="771" type="line"/>
      <point x="332" y="771" type="line"/>
      <point x="193" y="600" type="line"/>
      <point x="254" y="600" type="line"/>
    </contour>
  </outline>
</glyph>
<glyph name="endash" format="2">
  <advance width="480"/>
  <unicode hex="2013"/>
  <outline>
    <contour>
      <point x="502" y="269" type="line"/>
      <point x="516" y="331" type="line"/>
      <point x="116" y="331" type="line"/>
      <point x="102" y="269" type="line"/>
    </contour>
  </outline>
</glyph>
<glyph name="emdash" format="2">
  <advance width="580"/>
  <unicode hex="2014"/>
  <outline>
    <contour>
      <point x="602" y="269" type="line"/>
      <point x="616" y="331" type="line"/>
      <point x="116" y="331" type="line"/>
      <point x="102" y="269" type="line"/>
    </contour>
  </outline>
</glyph>
<glyph name="quotedblleft" format="2">
  <advance width="435"/>
  <unicode hex="201C"/>
  <outline>
    <contour>
      <point x="384" y="722" type="line"/>
      <point x="314" y="722" type="line"/>
      <point x="146" y="472" type="line"/>
      <point x="266" y="472" type="line"/>
    </contour>
    <contour>
      <point x="567" y="722" type="line"/>
      <point x="497" y="722" type="line"/>
      <point x="329" y="472" type="line"/>
      <point x="449" y="472" type="line"/>
    </contour>
  </outline>
</glyph>
<glyph name="uni201F" format="2">
  <advance width="435"/>
  <unicode hex="201F"/>
  <outline>
    <contour>
      <point x="276" y="472" type="line"/>
      <point x="329" y="472" type="line"/>
      <point x="304" y="722" type="line"/>
      <point x="204" y="722" type="line"/>
    </contour>
    <contour>
      <point x="449" y="472" type="line"/>
      <point x="502" y="472" type="line"/>
      <point x="477" y="722" type="line"/>
      <point x="377" y="722" type="line"/>
    </contour>
  </outline>
</glyph>
<glyph name="uni2023" format="2">
  <advance width="358"/>
  <unicode hex="2023"/>
  <outline>
    <contour>
      <point x="396" y="336" type="line"/>
      <point x="154" y="492" type="line"/>
      <point x="82" y="180" type="line"/>
    </contour>
  </outline>
</glyph>
<glyph name="ellipsis" format="2">
  <advance width="806"/>
  <unicode hex="2026"/>
  <outline>
    <contour>
      <point x="158" y="0" type="line"/>
      <point x="186" y="123" type="line"/>
      <point x="78" y="123" type="line"/>
      <point x="50" y="0" type="line"/>
    </contour>
    <contour>
      <point x="454" y="0" type="line"/>
      <point x="482" y="123" type="line"/>
      <point x="374" y="123" type="line"/>
      <point x="346" y="0" type="line"/>
    </contour>
    <contour>
      <point x="750" y="0" type="line"/>
      <point x="778" y="123" type="line"/>
      <point x="670" y="123" type="line"/>
      <point x="642" y="0" type="line"/>
    </contour>
  </outline>
</glyph>
<glyph name="perthousand" format="2">
  <advance width="1327"/>
  <unicode hex="2030"/>
  <outline>
    <component base="percent"/>
    <contour>
      <point x="962" y="137" type="curve" smooth="yes"/>
      <point x="962" y="43"/>
      <point x="1019" y="-3"/>
      <point x="1104" y="-3" type="curve" smooth="yes"/>
      <point x="1239" y="-3"/>
      <point x="1333" y="116"/>
      <point x="1333" y="238" type="curve" smooth="yes"/>
      <point x="1333" y="326"/>
      <point x="1283" y="380"/>
      <point x="1191" y="380" type="curve" smooth="yes"/>
      <point x="1055" y="380"/>
      <point x="962" y="258"/>
    </contour>
    <contour>
      <point x="1114" y="61" type="curve" smooth="yes"/>
      <point x="1065" y="61"/>
      <point x="1046" y="88"/>
      <point x="1046" y="138" type="curve" smooth="yes"/>
      <point x="1046" y="209"/>
      <point x="1084" y="311"/>
      <point x="1179" y="311" type="curve" smooth="yes"/>
      <point x="1227" y="311"/>
      <point x="1246" y="284"/>
      <point x="1246" y="234" type="curve" smooth="yes"/>
      <point x="1246" y="162"/>
      <point x="1209" y="61"/>
    </contour>
  </outline>
</glyph>
<glyph name="guilsinglleft" format="2">
  <advance width="361"/>
  <unicode hex="2039"/>
  <outline>
    <contour>
      <point x="302" y="57" type="line"/>
      <point x="227" y="252" type="line"/>
      <point x="392" y="447" type="line"/>
      <point x="314" y="447" type="line"/>
      <point x="132" y="252" type="line"/>
      <point x="224" y="57" type="line"/>
    </contour>
  </outline>
</glyph>
<glyph name="trademark" format="2">
  <advance width="659"/>
  <unicode hex="2122"/>
  <outline>
    <contour>
      <point x="420" y="675" type="line"/>
      <point x="428" y="712" type="line"/>
      <point x="214" y="712" type="line"/>
      <point x="206" y="675" type="line"/>
      <point x="288" y="675" type="line"/>
      <point x="233" y="439" type="line"/>
      <point x="283" y="439" type="line"/>
      <point x="338" y="675" type="line"/>
    </contour>
    <contour>
      <point x="711" y="439" type="line"/>
      <point x="775" y="713" type="line"/>
      <point x="698" y="713" type="line"/>
      <point x="580" y="507" type="line"/>
      <point x="557" y="713" type="line"/>
      <point x="482" y="713" type="line"/>
      <point x="418" y="439" type="line"/>
      <point x="468" y="439" type="line"/>
      <point x="519" y="659" type="line"/>
      <point x="546" y="439" type="line"/>
      <point x="583" y="439" type="line"/>
      <point x="713" y="661" type="line"/>
      <point x="661" y="439" type="line"/>
    </contour>
  </outline>
</glyph>
<glyph name="minus" format="2">
  <advance width="493"/>
  <unicode hex="2212"/>
  <outline>
    <contour>
      <point x="486" y="267" type="line"/>
      <point x="500" y="331" type="line"/>
      <point x="148" y="331" type="line"/>
      <point x="134" y="267" type="line"/>
    </contour>
  </outline>
</glyph>
<glyph name="infinity" format="2">
  <advance width="1000"/>
  <unicode hex="221E"/>
  <outline>
    <contour>
      <point x="406" y="386" type="curve" smooth="yes"/>
      <point x="453" y="386"/>
      <point x="489" y="354"/>
      <point x="534" y="298" type="curve"/>
      <point x="469" y="237"/>
      <point x="410" y="207"/>
      <point x="362" y="207" type="curve" smooth="yes"/>
      <point x="315" y="207"/>
      <point x="283" y="236"/>
      <point x="283" y="276" type="curve" smooth="yes"/>
      <point x="283" y="332"/>
      <point x="345" y="386"/>
    </contour>
    <contour>
      <point x="730" y="206" type="curve" smooth="yes"/>
      <point x="684" y="206"/>
      <point x="639" y="237"/>
      <point x="600" y="298" type="curve"/>
      <point x="677" y="357"/>
      <point x="734" y="386"/>
      <point x="777" y="386" type="curve" smooth="yes"/>
      <point x="824" y="386"/>
      <point x="849" y="350"/>
      <point x="849" y="313" type="curve" smooth="yes"/>
      <point x="849" y="253"/>
      <point x="787" y="206"/>
    </contour>
    <contour>
      <point x="792" y="440" type="curve" smooth="yes"/>
      <point x="738" y="440"/>
      <point x="666" y="404"/>
      <point x="577" y="333" type="curve"/>
      <point x="523" y="404"/>
      <point x="468" y="440"/>
      <point x="411" y="440" type="curve" smooth="yes"/>
      <point x="325" y="440"/>
      <point x="234" y="358"/>
      <point x="234" y="271" type="curve" smooth="yes"/>
      <point x="234" y="213"/>
      <point x="275" y="160"/>
      <point x="346" y="160" type="curve" smooth="yes"/>
      <point x="406" y="160"/>
      <point x="486" y="197"/>
      <point x="559" y="266" type="curve"/>
      <point x="614" y="192"/>
      <point x="657" y="159"/>
      <point x="728" y="159" type="curve" smooth="yes"/>
      <point x="812" y="159"/>
      <point x="903" y="243"/>
      <point x="903" y="329" type="curve" smooth="yes"/>
      <point x="903" y="391"/>
      <point x="857" y="440"/>
    </contour>
  </outline>
</glyph>
<glyph name="lessequal" format="2">
  <advance width="1000"/>
  <unicode hex="2264"/>
  <outline>
    <component base="less" xOffset="167" yOffset="73"/>
    <contour>
      <point x="800" y="0" type="line"/>
      <point x="813" y="55" type="line"/>
      <point x="213" y="55" type="line"/>
      <point x="200" y="0" type="line"/>
    </contour>
  </outline>
</glyph>
<glyph name="lozenge" format="2">
  <advance width="536"/>
  <unicode hex="25CA"/>
  <outline>
    <contour>
      <point x="592" y="392" type="line"/>
      <point x="479" y="776" type="line"/>
      <point x="416" y="776" type="line"/>
      <point x="126" y="392" type="line"/>
      <point x="237" y="0" type="line"/>
      <point x="300" y="0" type="line"/>
    </contour>
    <contour>
      <point x="530" y="392" type="line"/>
      <point x="282" y="56" type="line"/>
      <point x="188" y="392" type="line"/>
      <point x="435" y="719" type="line"/>
    </contour>
  </outline>
</glyph>
<glyph name="uni0433.loclSRB" format="2">
  <advance width="483"/>
  <anchor x="373" y="580" name="top"/>
  <outline>
    <component base="macroncomb" xOffset="469" yOffset="-40"/>
    <contour>
      <point x="68" y="99" type="curve" smooth="yes"/>
      <point x="68" y="28"/>
      <point x="130" y="-12"/>
      <point x="239" y="-12" type="curve" smooth="yes"/>
      <point x="368" y="-12"/>
      <point x="454" y="45"/>
      <point x="477" y="146" type="curve"/>
      <point x="384" y="146" type="line"/>
      <point x="369" y="85"/>
      <point x="324" y="53"/>
      <point x="254" y="53" type="curve" smooth="yes"/>
      <point x="196" y="53"/>
      <point x="166" y="75"/>
      <point x="166" y="116" type="curve" smooth="yes"/>
      <point x="166" y="173"/>
      <point x="224" y="206"/>
      <point x="335" y="227" type="curve" smooth="yes"/>
      <point x="377" y="235" type="line" smooth="yes"/>
      <point x="457" y="250"/>
      <point x="521" y="325"/>
      <point x="521" y="401" type="curve" smooth="yes"/>
      <point x="521" y="474"/>
      <point x="463" y="514"/>
      <point x="360" y="514" type="curve" smooth="yes"/>
      <point x="240" y="514"/>
      <point x="157" y="459"/>
      <point x="135" y="366" type="curve"/>
      <point x="227" y="366" type="line"/>
      <point x="239" y="421"/>
      <point x="279" y="449"/>
      <point x="344" y="449" type="curve" smooth="yes"/>
      <point x="397" y="449"/>
      <point x="423" y="430"/>
      <point x="423" y="392" type="curve" smooth="yes"/>
      <point x="423" y="342"/>
      <point x="375" y="307"/>
      <point x="288" y="292" type="curve" smooth="yes"/>
      <point x="247" y="285" type="line" smooth="yes"/>
      <point x="128" y="265"/>
      <point x="68" y="202"/>
    </contour>
  </outline>
</glyph>
<glyph name="uni0436.loclBGR" format="2">
  <advance width="748"/>
  <outline>
    <contour>
      <point x="496" y="722" type="line"/>
      <point x="396" y="292" type="line"/>
      <point x="254" y="500" type="line"/>
      <point x="141" y="500" type="line"/>
      <point x="291" y="282" type="line"/>
      <point x="10" y="0" type="line"/>
      <point x="129" y="0" type="line"/>
      <point x="171.404" y="43.2128"/>
      <point x="347.651" y="222.823"/>
      <point x="391" y="267" type="curve"/>
      <point x="329" y="0" type="line"/>
      <point x="419" y="0" type="line"/>
      <point x="481" y="267" type="line"/>
      <point x="619" y="0" type="line"/>
      <point x="738" y="0" type="line"/>
      <point x="587" y="282" type="line"/>
      <point x="837" y="500" type="line"/>
      <point x="724" y="500" type="line"/>
      <point x="486" y="292" type="line"/>
      <point x="586" y="722" type="line"/>
    </contour>
  </outline>
</glyph>
<glyph name="uni043B.loclBGR" format="2">
  <advance width="525"/>
  <outline>
    <contour>
      <point x="17" y="0" type="line"/>
      <point x="112" y="0" type="line"/>
      <point x="354" y="390" type="line"/>
      <point x="417" y="0" type="line"/>
      <point x="522" y="0" type="line"/>
      <point x="430" y="500" type="line"/>
      <point x="338" y="500" type="line"/>
    </contour>
  </outline>
</glyph>
